<?xml version="1.0" encoding="utf-8"?>
<svg width="178px" height="38px" viewBox="0 0 178 38" version="1.1" xmlns:xlink="http://www.w3.org/1999/xlink" xmlns="http://www.w3.org/2000/svg">
  <g id="Logo">
    <g id="Vietnam" fill="#60B0F4">
      <path d="M24.128 10.2L24.128 7L26.304 7L26.304 10.2L24.128 10.2ZM2.752 7.64L10.88 27.576L18.976 7.64L21.312 7.64L11.904 30.36L9.856 30.36L0.416 7.64L2.752 7.64ZM57.888 29.688Q57.632 29.784 57.088 30.04Q56.544 30.296 55.776 30.488Q55.008 30.68 54.112 30.68Q53.184 30.68 52.368 30.3265Q51.552 29.973 51.072 29.25Q50.592 28.527 50.592 27.4665L50.592 15.48L48.288 15.48L48.288 13.752L50.592 13.752L50.592 8.12L52.768 8.12L52.768 13.752L56.608 13.752L56.608 15.48L52.768 15.48L52.768 26.8635Q52.832 27.7635 53.424 28.2138Q54.016 28.664 54.784 28.664Q55.68 28.664 56.416 28.36Q57.152 28.056 57.312 27.928L57.888 29.688ZM34.976 29.9945Q36.512 30.68 38.304 30.68Q39.936 30.68 41.36 30.152Q42.784 29.624 43.84 28.664Q44.896 27.704 45.408 26.52L43.52 26.008Q42.944 27.352 41.488 28.184Q40.032 29.016 38.4 29.016Q36.8 29.016 35.44 28.2043Q34.08 27.3925 33.232 26.0078Q32.384 24.623 32.224 22.84L46.496 22.84Q46.528 22.713 46.528 22.4745L46.528 21.982Q46.528 19.6935 45.472 17.7708Q44.416 15.848 42.576 14.672Q40.736 13.496 38.272 13.496Q35.872 13.496 33.984 14.6552Q32.096 15.8145 31.024 17.752Q29.952 19.6895 29.952 22.008Q29.952 23.7935 30.576 25.3558Q31.2 26.918 32.32 28.1135Q33.44 29.309 34.976 29.9945ZM72.448 30.36L74.624 30.36L74.624 20.655Q74.624 19.0325 74.368 17.712Q74.112 16.3915 73.536 15.4528Q72.96 14.514 72 14.005Q71.04 13.496 69.664 13.496Q68.192 13.496 66.816 14.005Q65.44 14.514 64.352 15.421Q63.264 16.328 62.592 17.537L62.592 13.752L60.608 13.752L60.608 30.36L62.784 30.36L62.784 20.21Q63.2 18.845 64.144 17.7815Q65.088 16.718 66.336 16.099Q67.584 15.48 68.864 15.48Q70.72 15.48 71.584 16.8312Q72.448 18.1825 72.448 21.1075L72.448 30.36ZM77.92 25.592Q77.92 24.034 78.816 22.905Q79.712 21.776 81.296 21.156Q82.88 20.536 84.96 20.536Q86.176 20.536 87.488 20.728Q88.8 20.92 89.824 21.304L89.824 19.9Q89.824 17.801 88.576 16.5605Q87.328 15.32 85.12 15.32Q83.776 15.32 82.48 15.816Q81.184 16.312 79.776 17.272L78.944 15.736Q80.576 14.616 82.144 14.056Q83.712 13.496 85.344 13.496Q88.416 13.496 90.208 15.245Q92 16.994 92 20.0785L92 27.7415Q92 28.187 92.192 28.3935Q92.384 28.6 92.8 28.632L92.8 30.36Q92.448 30.392 92.192 30.424Q91.936 30.456 91.808 30.424Q91.008 30.392 90.592 29.912Q90.176 29.432 90.144 28.888L90.112 27.672Q88.992 29.112 87.2 29.896Q85.408 30.68 83.552 30.68Q81.952 30.68 80.656 29.9963Q79.36 29.3125 78.64 28.152Q77.92 26.9915 77.92 25.592ZM119.328 30.36L121.504 30.36L121.504 20.655Q121.504 19.0325 121.232 17.712Q120.96 16.3915 120.368 15.4528Q119.776 14.514 118.8 14.005Q117.824 13.496 116.416 13.496Q114.368 13.496 112.752 14.5778Q111.136 15.6595 109.984 17.7595Q109.696 15.8505 108.416 14.6733Q107.136 13.496 105.056 13.496Q103.04 13.496 101.392 14.546Q99.744 15.596 98.688 17.537L98.688 13.752L96.704 13.752L96.704 30.36L98.88 30.36L98.88 20.21Q99.488 18.083 100.992 16.7815Q102.496 15.48 104.352 15.48Q106.208 15.48 107.104 16.8312Q108 18.1825 108 21.1075L108 30.36L110.176 30.36L110.176 20.249Q110.784 18.151 112.272 16.8155Q113.76 15.48 115.648 15.48Q117.472 15.48 118.4 16.8472Q119.328 18.2145 119.328 21.1075L119.328 30.36ZM24.128 30.36L24.128 13.688L26.304 13.688L26.304 30.36L24.128 30.36ZM44.48 21.272L32.16 21.272Q32.288 19.4985 33.136 18.121Q33.984 16.7435 35.328 15.9677Q36.672 15.192 38.304 15.192Q39.936 15.192 41.296 15.9677Q42.656 16.7435 43.504 18.1053Q44.352 19.467 44.48 21.272ZM89.088 26.8595Q89.44 26.4155 89.632 26.0035Q89.824 25.5915 89.824 25.274L89.824 22.864Q88.736 22.452 87.568 22.23Q86.4 22.008 85.216 22.008Q82.88 22.008 81.44 22.9275Q80 23.847 80 25.4325Q80 26.3525 80.48 27.161Q80.96 27.9695 81.888 28.4928Q82.816 29.016 84.064 29.016Q85.632 29.016 86.992 28.4135Q88.352 27.811 89.088 26.8595Z" />
    </g>
    <g id="ITS" fill="#60B0F4" transform="translate(124 0)">
      <path d="M46.76 12.984Q47.352 13.368 47.576 13.592L49.528 10.008Q48.536 9.336 47.288 8.76Q46.04 8.184 44.616 7.832Q43.192 7.48 41.592 7.48Q39.288 7.48 37.4 8.29275Q35.512 9.1055 34.408 10.6827Q33.304 12.26 33.304 14.5865Q33.304 16.3075 34.008 17.4545Q34.712 18.6015 36.152 19.3505Q37.592 20.0995 39.736 20.705Q41.528 21.2145 42.84 21.6448Q44.152 22.075 44.888 22.6488Q45.624 23.2225 45.624 24.242Q45.624 25.3495 44.696 25.9508Q43.768 26.552 41.976 26.552Q40.696 26.552 39.448 26.232Q38.2 25.912 37.144 25.448Q36.088 24.984 35.352 24.52Q34.616 24.056 34.328 23.768L32.376 27.576Q33.688 28.504 35.256 29.16Q36.824 29.816 38.52 30.168Q40.216 30.52 41.912 30.52Q43.608 30.52 45.112 30.1538Q46.616 29.7875 47.8 28.9915Q48.984 28.1955 49.656 26.906Q50.328 25.6165 50.328 23.8015Q50.328 21.732 49.448 20.4743Q48.568 19.2165 46.92 18.4365Q45.272 17.6565 43.032 17.115Q41.304 16.6695 40.152 16.2873Q39 15.905 38.424 15.3637Q37.848 14.8225 37.848 13.899Q37.848 12.6895 38.76 12.0208Q39.672 11.352 41.464 11.352Q42.488 11.352 43.48 11.624Q44.472 11.896 45.32 12.248Q46.168 12.6 46.76 12.984ZM5.08 30.36L5.08 7.64L9.496 7.64L9.496 30.36L5.08 30.36ZM31.224 11.512L23.96 11.512L23.96 30.36L19.576 30.36L19.576 11.512L12.312 11.512L12.312 7.64L31.224 7.64L31.224 11.512Z" />
    </g>
  </g>
</svg>