<?xml version="1.0" encoding="utf-8"?>
<svg width="430px" height="268px" viewBox="0 0 430 268" version="1.1" xmlns:xlink="http://www.w3.org/1999/xlink" xmlns="http://www.w3.org/2000/svg">
  <defs>
    <rect width="430" height="268" id="artboard_1" />
    <clipPath id="clip_1">
      <use xlink:href="#artboard_1" clip-rule="evenodd" />
    </clipPath>
  </defs>
  <g id="Namecard-After" clip-path="url(#clip_1)">
    <use xlink:href="#artboard_1" stroke="none" fill="#60B0F4" />
    <g id="🔧-We-build-high-quality-Angular-applications-for-any-scale." fill="#FFFFFF" transform="translate(23 162)">
      <path d="M21.8486 1.625Q22.457 1.625 22.9937 1.85742Q23.5303 2.08984 23.9302 2.48975Q24.3301 2.88965 24.5625 3.42627Q24.7949 3.96289 24.7949 4.57129Q24.7949 5.17969 24.5625 5.71631Q24.3301 6.25293 23.9336 6.65283Q23.5371 7.05273 23.0005 7.28516Q22.4639 7.51758 21.8623 7.51758L21.7666 7.51758L14.9648 14.3193Q14.9648 14.9482 14.7427 15.4985Q14.5205 16.0488 14.1274 16.459Q13.7344 16.8691 13.1943 17.1084Q12.6543 17.3477 12.0186 17.3477Q11.4102 17.3477 10.8735 17.1152Q10.3369 16.8828 9.93701 16.4829Q9.53711 16.083 9.30469 15.5464Q9.07227 15.0098 9.07227 14.4014Q9.07227 13.7656 9.31152 13.2256Q9.55078 12.6855 9.96094 12.2925Q10.3711 11.8994 10.9214 11.6772Q11.4717 11.4551 12.1006 11.4551L18.9023 4.65332Q18.9023 4.03125 19.1245 3.47754Q19.3467 2.92383 19.7397 2.51367Q20.1328 2.10352 20.6729 1.86426Q21.2129 1.625 21.8486 1.625ZM21.8486 6.54004Q22.2451 6.54004 22.604 6.38281Q22.9629 6.22559 23.2295 5.95557Q23.4961 5.68555 23.6533 5.33008Q23.8105 4.97461 23.8105 4.57129Q23.8105 4.1543 23.6328 3.76465L22.3408 5.06348L21.8486 5.06348L21.3564 4.57129L21.3564 4.0791L22.6553 2.78711Q22.2656 2.60938 21.8486 2.60938Q21.4453 2.60938 21.0898 2.7666Q20.7344 2.92383 20.4644 3.19043Q20.1943 3.45703 20.0371 3.81592Q19.8799 4.1748 19.8799 4.57129Q19.8799 4.6875 19.8936 4.79688Q19.9072 4.90625 19.9277 5.01563L12.4629 12.4873Q12.2305 12.4326 12.0186 12.4326Q11.6084 12.4326 11.2529 12.5864Q10.8975 12.7402 10.6309 13.0068Q10.3643 13.2734 10.2104 13.6323Q10.0566 13.9912 10.0566 14.4014Q10.0566 14.8184 10.2344 15.208L11.5264 13.9092L12.0186 13.9092L12.5107 14.4014L12.5107 14.8936L11.2119 16.1855Q11.6016 16.3633 12.0186 16.3633Q12.4287 16.3633 12.7876 16.2095Q13.1465 16.0557 13.4131 15.7891Q13.6797 15.5225 13.8335 15.167Q13.9873 14.8115 13.9873 14.4014Q13.9873 14.1895 13.9326 13.957L21.4043 6.49219Q21.5137 6.5127 21.623 6.52637Q21.7324 6.54004 21.8486 6.54004ZM303.052 5.02246Q302.724 4.83789 302.307 4.83789Q301.131 4.83789 301.131 6.32129L301.131 7.40137L302.771 7.40137L302.771 8.3584L301.131 8.3584L301.131 14.4014L300.017 14.4014L300.017 8.3584L298.82 8.3584L298.82 7.40137L300.017 7.40137L300.017 6.2666Q300.017 5.16602 300.652 4.52686Q301.288 3.8877 302.238 3.8877Q302.751 3.8877 303.052 4.01074L303.052 5.02246ZM56.8965 13.3896L56.8691 13.3896L56.8691 14.4014L55.748 14.4014L55.748 4.03809L56.8691 4.03809L56.8691 8.63184L56.8965 8.63184Q57.7236 7.2373 59.3164 7.2373Q60.6631 7.2373 61.4253 8.17725Q62.1875 9.11719 62.1875 10.6963Q62.1875 12.4531 61.333 13.5093Q60.4785 14.5654 58.9951 14.5654Q57.6074 14.5654 56.8965 13.3896ZM75.292 14.4014L76.4131 14.4014L76.4131 4.03809L75.292 4.03809L75.292 14.4014ZM84.6572 14.4014L83.5361 14.4014L83.5361 13.2119L83.5088 13.2119Q82.7295 14.5654 81.1025 14.5654Q79.7832 14.5654 78.9937 13.6255Q78.2041 12.6855 78.2041 11.0654Q78.2041 9.3291 79.0791 8.2832Q79.9541 7.2373 81.4102 7.2373Q82.8525 7.2373 83.5088 8.37207L83.5361 8.37207L83.5361 4.03809L84.6572 4.03809L84.6572 14.4014ZM95.4512 14.4014L96.5723 14.4014L96.5723 10.0879Q96.5723 7.2373 94.207 7.2373Q92.7168 7.2373 91.9102 8.56348L91.8828 8.56348L91.8828 4.03809L90.7617 4.03809L90.7617 14.4014L91.8828 14.4014L91.8828 10.4365Q91.8828 9.44531 92.4434 8.81299Q93.0039 8.18066 93.8242 8.18066Q95.4512 8.18066 95.4512 10.3682L95.4512 14.4014ZM116.13 14.4014L115.009 14.4014L115.009 10.3682Q115.009 8.18066 113.382 8.18066Q112.562 8.18066 112.001 8.81299Q111.44 9.44531 111.44 10.4365L111.44 14.4014L110.319 14.4014L110.319 4.03809L111.44 4.03809L111.44 8.56348L111.468 8.56348Q112.274 7.2373 113.765 7.2373Q116.13 7.2373 116.13 10.0879L116.13 14.4014ZM147.131 14.4014L148.252 14.4014L148.252 4.03809L147.131 4.03809L147.131 14.4014ZM202.386 14.4014L203.507 14.4014L203.507 4.03809L202.386 4.03809L202.386 14.4014ZM245.186 14.4014L246.307 14.4014L246.307 4.03809L245.186 4.03809L245.186 14.4014ZM366.065 14.4014L367.187 14.4014L367.187 4.03809L366.065 4.03809L366.065 14.4014ZM72.4756 5.62402Q72.1748 5.62402 71.9629 5.41895Q71.751 5.21387 71.751 4.89941Q71.751 4.58496 71.9629 4.37646Q72.1748 4.16797 72.4756 4.16797Q72.7832 4.16797 72.9985 4.37646Q73.2139 4.58496 73.2139 4.89941Q73.2139 5.2002 72.9985 5.41211Q72.7832 5.62402 72.4756 5.62402ZM99.2588 5.62402Q98.958 5.62402 98.7461 5.41895Q98.5342 5.21387 98.5342 4.89941Q98.5342 4.58496 98.7461 4.37646Q98.958 4.16797 99.2588 4.16797Q99.5664 4.16797 99.7817 4.37646Q99.9971 4.58496 99.9971 4.89941Q99.9971 5.2002 99.7817 5.41211Q99.5664 5.62402 99.2588 5.62402ZM151.096 5.62402Q150.795 5.62402 150.583 5.41895Q150.371 5.21387 150.371 4.89941Q150.371 4.58496 150.583 4.37646Q150.795 4.16797 151.096 4.16797Q151.403 4.16797 151.619 4.37646Q151.834 4.58496 151.834 4.89941Q151.834 5.2002 151.619 5.41211Q151.403 5.62402 151.096 5.62402ZM249.15 5.62402Q248.85 5.62402 248.638 5.41895Q248.426 5.21387 248.426 4.89941Q248.426 4.58496 248.638 4.37646Q248.85 4.16797 249.15 4.16797Q249.458 4.16797 249.673 4.37646Q249.889 4.58496 249.889 4.89941Q249.889 5.2002 249.673 5.41211Q249.458 5.62402 249.15 5.62402ZM270.875 5.62402Q270.574 5.62402 270.362 5.41895Q270.15 5.21387 270.15 4.89941Q270.15 4.58496 270.362 4.37646Q270.574 4.16797 270.875 4.16797Q271.183 4.16797 271.398 4.37646Q271.613 4.58496 271.613 4.89941Q271.613 5.2002 271.398 5.41211Q271.183 5.62402 270.875 5.62402ZM43.2861 4.59863L40.5176 14.4014L39.1709 14.4014L37.1543 7.2373Q37.0244 6.7793 36.9971 6.23926L36.9697 6.23926Q36.9287 6.74512 36.792 7.22363L34.7617 14.4014L33.4287 14.4014L30.5576 4.59863L31.8223 4.59863L33.9072 12.1182Q34.0371 12.5898 34.0713 13.1025L34.1055 13.1025Q34.1396 12.7402 34.3174 12.1182L36.4844 4.59863L37.585 4.59863L39.6631 12.1729Q39.7725 12.5625 39.8271 13.0889L39.8545 13.0889Q39.8818 12.7334 40.0391 12.1455L42.042 4.59863L43.2861 4.59863ZM175.732 14.4014L177.004 14.4014L173.23 4.59863L172.041 4.59863L168.281 14.4014L169.56 14.4014L170.537 11.6533L174.693 11.6533L175.732 14.4014ZM156.113 14.5518Q156.763 14.5518 157.159 14.333L157.159 13.376Q156.852 13.6084 156.428 13.6084Q155.874 13.6084 155.635 13.3076Q155.396 13.0068 155.396 12.3027L155.396 8.3584L157.159 8.3584L157.159 7.40137L155.396 7.40137L155.396 5.33008L154.274 5.69238L154.274 7.40137L153.071 7.40137L153.071 8.3584L154.274 8.3584L154.274 12.501Q154.274 14.5518 156.113 14.5518ZM267.758 14.5518Q268.407 14.5518 268.804 14.333L268.804 13.376Q268.496 13.6084 268.072 13.6084Q267.519 13.6084 267.279 13.3076Q267.04 13.0068 267.04 12.3027L267.04 8.3584L268.804 8.3584L268.804 7.40137L267.04 7.40137L267.04 5.33008L265.919 5.69238L265.919 7.40137L264.716 7.40137L264.716 8.3584L265.919 8.3584L265.919 12.501Q265.919 14.5518 267.758 14.5518ZM172.779 6.44434L174.317 10.6211L170.92 10.6211L172.444 6.44434Q172.533 6.20508 172.602 5.78809L172.629 5.78809Q172.704 6.23926 172.779 6.44434ZM45.2754 11.1816L50.2178 11.1816L50.2178 10.5938Q50.2178 9.01465 49.4658 8.12598Q48.7139 7.2373 47.3398 7.2373Q45.9658 7.2373 45.0396 8.26611Q44.1133 9.29492 44.1133 10.9287Q44.1133 12.6582 44.9609 13.6118Q45.8086 14.5654 47.292 14.5654Q48.8096 14.5654 49.7324 13.8955L49.7324 12.8428Q48.7412 13.6221 47.5586 13.6221Q46.5059 13.6221 45.9043 12.9863Q45.3027 12.3506 45.2754 11.1816ZM104.358 17.6963Q108.05 17.6963 108.05 13.8408L108.05 7.40137L106.929 7.40137L106.929 8.37207L106.901 8.37207Q106.218 7.2373 104.803 7.2373Q103.313 7.2373 102.455 8.29004Q101.597 9.34277 101.597 11.127Q101.597 12.6992 102.393 13.6323Q103.189 14.5654 104.495 14.5654Q106.102 14.5654 106.901 13.2256L106.929 13.2256L106.929 13.9912Q106.929 16.7393 104.345 16.7393Q103.271 16.7393 102.089 16.083L102.089 17.2041Q103.06 17.6963 104.358 17.6963ZM129.815 17.6211L128.694 17.6211L128.694 13.1982L128.667 13.1982Q127.936 14.5654 126.274 14.5654Q124.955 14.5654 124.159 13.6255Q123.362 12.6855 123.362 11.0654Q123.362 9.32227 124.237 8.27979Q125.112 7.2373 126.589 7.2373Q128.024 7.2373 128.667 8.37207L128.694 8.37207L128.694 7.40137L129.815 7.40137L129.815 17.6211ZM145.019 14.4014L143.897 14.4014L143.897 13.3076L143.87 13.3076Q143.139 14.5654 141.717 14.5654Q140.671 14.5654 140.08 14.0117Q139.488 13.458 139.488 12.542Q139.488 10.5801 141.799 10.2588L143.897 9.96484Q143.897 8.18066 142.455 8.18066Q141.19 8.18066 140.172 9.04199L140.172 7.89355Q141.204 7.2373 142.551 7.2373Q145.019 7.2373 145.019 9.84863L145.019 14.4014ZM184.106 14.4014L182.985 14.4014L182.985 10.4092Q182.985 8.18066 181.358 8.18066Q180.518 8.18066 179.967 8.81299Q179.417 9.44531 179.417 10.4092L179.417 14.4014L178.296 14.4014L178.296 7.40137L179.417 7.40137L179.417 8.56348L179.444 8.56348Q180.237 7.2373 181.741 7.2373Q182.89 7.2373 183.498 7.979Q184.106 8.7207 184.106 10.1221L184.106 14.4014ZM188.502 17.6963Q192.193 17.6963 192.193 13.8408L192.193 7.40137L191.072 7.40137L191.072 8.37207L191.045 8.37207Q190.361 7.2373 188.946 7.2373Q187.456 7.2373 186.598 8.29004Q185.74 9.34277 185.74 11.127Q185.74 12.6992 186.537 13.6323Q187.333 14.5654 188.639 14.5654Q190.245 14.5654 191.045 13.2256L191.072 13.2256L191.072 13.9912Q191.072 16.7393 188.488 16.7393Q187.415 16.7393 186.232 16.083L186.232 17.2041Q187.203 17.6963 188.502 17.6963ZM210.787 14.4014L209.666 14.4014L209.666 13.3076L209.639 13.3076Q208.907 14.5654 207.485 14.5654Q206.439 14.5654 205.848 14.0117Q205.257 13.458 205.257 12.542Q205.257 10.5801 207.567 10.2588L209.666 9.96484Q209.666 8.18066 208.224 8.18066Q206.959 8.18066 205.94 9.04199L205.94 7.89355Q206.973 7.2373 208.319 7.2373Q210.787 7.2373 210.787 9.84863L210.787 14.4014ZM226.612 14.4014L225.491 14.4014L225.491 13.3076L225.464 13.3076Q224.732 14.5654 223.311 14.5654Q222.265 14.5654 221.673 14.0117Q221.082 13.458 221.082 12.542Q221.082 10.5801 223.393 10.2588L225.491 9.96484Q225.491 8.18066 224.049 8.18066Q222.784 8.18066 221.766 9.04199L221.766 7.89355Q222.798 7.2373 224.145 7.2373Q226.612 7.2373 226.612 9.84863L226.612 14.4014ZM229.846 13.3896L229.873 13.3896Q230.611 14.5654 231.972 14.5654Q233.455 14.5654 234.31 13.5093Q235.164 12.4531 235.164 10.6963Q235.164 9.11719 234.405 8.17725Q233.646 7.2373 232.293 7.2373Q230.7 7.2373 229.873 8.63184L229.846 8.63184L229.846 7.40137L228.725 7.40137L228.725 17.6211L229.846 17.6211L229.846 13.3896ZM238.104 13.3896L238.076 13.3896L238.076 17.6211L236.955 17.6211L236.955 7.40137L238.076 7.40137L238.076 8.63184L238.104 8.63184Q238.931 7.2373 240.523 7.2373Q241.877 7.2373 242.636 8.17725Q243.395 9.11719 243.395 10.6963Q243.395 12.4531 242.54 13.5093Q241.686 14.5654 240.202 14.5654Q238.842 14.5654 238.104 13.3896ZM254.824 14.5654Q255.932 14.5654 256.738 14.0801L256.738 13.0137Q255.932 13.6221 255.016 13.6221Q253.929 13.6221 253.283 12.9111Q252.637 12.2002 252.637 10.9697Q252.637 9.71875 253.324 8.94971Q254.011 8.18066 255.084 8.18066Q255.973 8.18066 256.752 8.72754L256.752 7.5791Q256.048 7.2373 255.125 7.2373Q253.471 7.2373 252.479 8.28662Q251.488 9.33594 251.488 11.0654Q251.488 12.6172 252.408 13.5913Q253.327 14.5654 254.824 14.5654ZM263.444 14.4014L262.323 14.4014L262.323 13.3076L262.296 13.3076Q261.564 14.5654 260.143 14.5654Q259.097 14.5654 258.505 14.0117Q257.914 13.458 257.914 12.542Q257.914 10.5801 260.225 10.2588L262.323 9.96484Q262.323 8.18066 260.881 8.18066Q259.616 8.18066 258.598 9.04199L258.598 7.89355Q259.63 7.2373 260.977 7.2373Q263.444 7.2373 263.444 9.84863L263.444 14.4014ZM274.139 13.5845Q275.065 14.5654 276.617 14.5654Q278.21 14.5654 279.157 13.5571Q280.104 12.5488 280.104 10.874Q280.104 9.16504 279.225 8.20117Q278.347 7.2373 276.781 7.2373Q275.141 7.2373 274.177 8.22852Q273.213 9.21973 273.213 10.9834Q273.213 12.6035 274.139 13.5845ZM287.705 14.4014L286.584 14.4014L286.584 10.4092Q286.584 8.18066 284.957 8.18066Q284.116 8.18066 283.566 8.81299Q283.016 9.44531 283.016 10.4092L283.016 14.4014L281.895 14.4014L281.895 7.40137L283.016 7.40137L283.016 8.56348L283.043 8.56348Q283.836 7.2373 285.34 7.2373Q286.488 7.2373 287.097 7.979Q287.705 8.7207 287.705 10.1221L287.705 14.4014ZM289.394 12.9453L289.394 14.1484Q290.187 14.5654 291.267 14.5654Q291.813 14.5654 292.313 14.4424Q292.812 14.3193 293.194 14.0664Q293.577 13.8135 293.806 13.4307Q294.035 13.0479 294.035 12.5283Q294.035 12.1045 293.895 11.7969Q293.755 11.4893 293.495 11.2534Q293.235 11.0176 292.866 10.8296Q292.497 10.6416 292.032 10.4639Q291.684 10.3271 291.41 10.2109Q291.137 10.0947 290.945 9.95117Q290.754 9.80762 290.655 9.62305Q290.556 9.43848 290.556 9.16504Q290.556 8.94629 290.655 8.76514Q290.754 8.58398 290.935 8.4541Q291.116 8.32422 291.369 8.25244Q291.622 8.18066 291.937 8.18066Q292.941 8.18066 293.714 8.68652L293.714 7.55176Q292.996 7.2373 292.087 7.2373Q291.574 7.2373 291.092 7.36719Q290.61 7.49707 290.234 7.75342Q289.858 8.00977 289.633 8.38916Q289.407 8.76855 289.407 9.26074Q289.407 9.66406 289.527 9.96484Q289.646 10.2656 289.882 10.5015Q290.118 10.7373 290.47 10.9253Q290.822 11.1133 291.287 11.2979Q291.622 11.4277 291.913 11.5474Q292.203 11.667 292.418 11.8174Q292.634 11.9678 292.76 12.1626Q292.887 12.3574 292.887 12.6377Q292.887 13.6221 291.41 13.6221Q290.31 13.6221 289.394 12.9453ZM304.422 13.5845Q305.349 14.5654 306.9 14.5654Q308.493 14.5654 309.44 13.5571Q310.387 12.5488 310.387 10.874Q310.387 9.16504 309.508 8.20117Q308.63 7.2373 307.064 7.2373Q305.424 7.2373 304.46 8.22852Q303.496 9.21973 303.496 10.9834Q303.496 12.6035 304.422 13.5845ZM324.77 14.4014L325.891 14.4014L325.891 9.84863Q325.891 7.2373 323.423 7.2373Q322.076 7.2373 321.044 7.89355L321.044 9.04199Q322.063 8.18066 323.327 8.18066Q324.77 8.18066 324.77 9.96484L322.671 10.2588Q320.36 10.5801 320.36 12.542Q320.36 13.458 320.952 14.0117Q321.543 14.5654 322.589 14.5654Q324.011 14.5654 324.742 13.3076L324.77 13.3076L324.77 14.4014ZM333.813 14.4014L332.692 14.4014L332.692 10.4092Q332.692 8.18066 331.065 8.18066Q330.225 8.18066 329.674 8.81299Q329.124 9.44531 329.124 10.4092L329.124 14.4014L328.003 14.4014L328.003 7.40137L329.124 7.40137L329.124 8.56348L329.151 8.56348Q329.944 7.2373 331.448 7.2373Q332.597 7.2373 333.205 7.979Q333.813 8.7207 333.813 10.1221L333.813 14.4014ZM346.111 14.1484L346.111 12.9453Q347.027 13.6221 348.128 13.6221Q349.604 13.6221 349.604 12.6377Q349.604 12.3574 349.478 12.1626Q349.352 11.9678 349.136 11.8174Q348.921 11.667 348.63 11.5474Q348.34 11.4277 348.005 11.2979Q347.54 11.1133 347.188 10.9253Q346.836 10.7373 346.6 10.5015Q346.364 10.2656 346.245 9.96484Q346.125 9.66406 346.125 9.26074Q346.125 8.76855 346.351 8.38916Q346.576 8.00977 346.952 7.75342Q347.328 7.49707 347.81 7.36719Q348.292 7.2373 348.805 7.2373Q349.714 7.2373 350.432 7.55176L350.432 8.68652Q349.659 8.18066 348.654 8.18066Q348.34 8.18066 348.087 8.25244Q347.834 8.32422 347.653 8.4541Q347.472 8.58398 347.373 8.76514Q347.273 8.94629 347.273 9.16504Q347.273 9.43848 347.373 9.62305Q347.472 9.80762 347.663 9.95117Q347.854 10.0947 348.128 10.2109Q348.401 10.3271 348.75 10.4639Q349.215 10.6416 349.584 10.8296Q349.953 11.0176 350.213 11.2534Q350.473 11.4893 350.613 11.7969Q350.753 12.1045 350.753 12.5283Q350.753 13.0479 350.524 13.4307Q350.295 13.8135 349.912 14.0664Q349.529 14.3193 349.03 14.4424Q348.531 14.5654 347.984 14.5654Q346.904 14.5654 346.111 14.1484ZM355.333 14.5654Q356.44 14.5654 357.247 14.0801L357.247 13.0137Q356.44 13.6221 355.524 13.6221Q354.438 13.6221 353.792 12.9111Q353.146 12.2002 353.146 10.9697Q353.146 9.71875 353.833 8.94971Q354.52 8.18066 355.593 8.18066Q356.481 8.18066 357.261 8.72754L357.261 7.5791Q356.557 7.2373 355.634 7.2373Q353.979 7.2373 352.988 8.28662Q351.997 9.33594 351.997 11.0654Q351.997 12.6172 352.917 13.5913Q353.836 14.5654 355.333 14.5654ZM363.953 14.4014L362.832 14.4014L362.832 13.3076L362.805 13.3076Q362.073 14.5654 360.651 14.5654Q359.605 14.5654 359.014 14.0117Q358.423 13.458 358.423 12.542Q358.423 10.5801 360.733 10.2588L362.832 9.96484Q362.832 8.18066 361.39 8.18066Q360.125 8.18066 359.106 9.04199L359.106 7.89355Q360.139 7.2373 361.485 7.2373Q363.953 7.2373 363.953 9.84863L363.953 14.4014ZM375.082 11.1816L370.14 11.1816Q370.167 12.3506 370.769 12.9863Q371.37 13.6221 372.423 13.6221Q373.605 13.6221 374.597 12.8428L374.597 13.8955Q373.674 14.5654 372.156 14.5654Q370.673 14.5654 369.825 13.6118Q368.978 12.6582 368.978 10.9287Q368.978 9.29492 369.904 8.26611Q370.83 7.2373 372.204 7.2373Q373.578 7.2373 374.33 8.12598Q375.082 9.01465 375.082 10.5938L375.082 11.1816ZM215.702 8.31055Q216.256 8.31055 216.55 8.53613L216.55 7.37402Q216.317 7.27832 215.88 7.27832Q215.271 7.27832 214.779 7.69189Q214.287 8.10547 214.048 8.84375L214.021 8.84375L214.021 7.40137L212.899 7.40137L212.899 14.4014L214.021 14.4014L214.021 10.833Q214.021 9.66406 214.502 8.9873Q214.984 8.31055 215.702 8.31055ZM315.828 8.53613Q315.534 8.31055 314.98 8.31055Q314.263 8.31055 313.781 8.9873Q313.299 9.66406 313.299 10.833L313.299 14.4014L312.178 14.4014L312.178 7.40137L313.299 7.40137L313.299 8.84375L313.326 8.84375Q313.565 8.10547 314.058 7.69189Q314.55 7.27832 315.158 7.27832Q315.596 7.27832 315.828 7.37402L315.828 8.53613ZM68.5176 14.4014L69.6387 14.4014L69.6387 7.40137L68.5176 7.40137L68.5176 11.4346Q68.5176 12.4121 67.9878 13.0171Q67.458 13.6221 66.6377 13.6221Q64.9424 13.6221 64.9424 11.4072L64.9424 7.40137L63.8281 7.40137L63.8281 11.585Q63.8281 14.5654 66.3301 14.5654Q67.793 14.5654 68.4902 13.2939L68.5176 13.2939L68.5176 14.4014ZM73.0225 14.4014L71.9014 14.4014L71.9014 7.40137L73.0225 7.40137L73.0225 14.4014ZM99.8057 14.4014L98.6846 14.4014L98.6846 7.40137L99.8057 7.40137L99.8057 14.4014ZM136.624 14.4014L137.745 14.4014L137.745 7.40137L136.624 7.40137L136.624 11.4346Q136.624 12.4121 136.094 13.0171Q135.564 13.6221 134.744 13.6221Q133.049 13.6221 133.049 11.4072L133.049 7.40137L131.935 7.40137L131.935 11.585Q131.935 14.5654 134.437 14.5654Q135.899 14.5654 136.597 13.2939L136.624 13.2939L136.624 14.4014ZM151.643 14.4014L150.521 14.4014L150.521 7.40137L151.643 7.40137L151.643 14.4014ZM164.228 7.40137L161.008 15.5225Q160.146 17.6963 158.588 17.6963Q158.15 17.6963 157.856 17.6074L157.856 16.6025Q158.219 16.7256 158.52 16.7256Q159.367 16.7256 159.791 15.7139L160.352 14.3877L157.617 7.40137L158.861 7.40137L160.755 12.7881Q160.789 12.8906 160.898 13.3213L160.939 13.3213Q160.974 13.1572 161.076 12.8018L163.065 7.40137L164.228 7.40137ZM200.123 14.4014L199.002 14.4014L199.002 13.2939L198.975 13.2939Q198.277 14.5654 196.814 14.5654Q194.313 14.5654 194.313 11.585L194.313 7.40137L195.427 7.40137L195.427 11.4072Q195.427 13.6221 197.122 13.6221Q197.942 13.6221 198.472 13.0171Q199.002 12.4121 199.002 11.4346L199.002 7.40137L200.123 7.40137L200.123 14.4014ZM249.697 14.4014L248.576 14.4014L248.576 7.40137L249.697 7.40137L249.697 14.4014ZM271.422 14.4014L270.301 14.4014L270.301 7.40137L271.422 7.40137L271.422 14.4014ZM338.277 15.5225L341.497 7.40137L340.335 7.40137L338.346 12.8018Q338.243 13.1572 338.209 13.3213L338.168 13.3213Q338.059 12.8906 338.024 12.7881L336.131 7.40137L334.887 7.40137L337.621 14.3877L337.061 15.7139Q336.637 16.7256 335.789 16.7256Q335.488 16.7256 335.126 16.6025L335.126 17.6074Q335.42 17.6963 335.857 17.6963Q337.416 17.6963 338.277 15.5225ZM48.6011 8.7207Q49.0625 9.26074 49.0693 10.2314L45.2891 10.2314Q45.4189 9.31543 45.9727 8.74805Q46.5264 8.18066 47.3193 8.18066Q48.1396 8.18066 48.6011 8.7207ZM56.8691 10.5664L56.8691 11.5439Q56.8691 12.4121 57.4331 13.0171Q57.9971 13.6221 58.8652 13.6221Q59.8838 13.6221 60.4614 12.8428Q61.0391 12.0635 61.0391 10.6758Q61.0391 9.50684 60.499 8.84375Q59.959 8.18066 59.0361 8.18066Q58.0586 8.18066 57.4639 8.86084Q56.8691 9.54102 56.8691 10.5664ZM83.5361 11.2363L83.5361 10.2041Q83.5361 9.35645 82.9756 8.76855Q82.415 8.18066 81.5537 8.18066Q80.5283 8.18066 79.9404 8.93262Q79.3525 9.68457 79.3525 11.0107Q79.3525 12.2207 79.9165 12.9214Q80.4805 13.6221 81.4307 13.6221Q82.3672 13.6221 82.9517 12.9453Q83.5361 12.2686 83.5361 11.2363ZM106.929 10.2041L106.929 11.2363Q106.929 12.2822 106.337 12.9521Q105.746 13.6221 104.803 13.6221Q103.873 13.6221 103.309 12.9214Q102.745 12.2207 102.745 11.0518Q102.745 9.69141 103.333 8.93604Q103.921 8.18066 104.96 8.18066Q105.801 8.18066 106.365 8.77539Q106.929 9.37012 106.929 10.2041ZM128.694 11.25L128.694 10.2314Q128.694 9.37012 128.13 8.77539Q127.566 8.18066 126.698 8.18066Q125.687 8.18066 125.099 8.9292Q124.511 9.67773 124.511 11.0381Q124.511 12.248 125.078 12.9351Q125.646 13.6221 126.541 13.6221Q127.525 13.6221 128.11 12.9487Q128.694 12.2754 128.694 11.25ZM191.072 10.2041L191.072 11.2363Q191.072 12.2822 190.481 12.9521Q189.89 13.6221 188.946 13.6221Q188.017 13.6221 187.453 12.9214Q186.889 12.2207 186.889 11.0518Q186.889 9.69141 187.477 8.93604Q188.064 8.18066 189.104 8.18066Q189.944 8.18066 190.508 8.77539Q191.072 9.37012 191.072 10.2041ZM229.846 11.5439L229.846 10.5664Q229.846 9.54102 230.44 8.86084Q231.035 8.18066 232.013 8.18066Q232.936 8.18066 233.476 8.84375Q234.016 9.50684 234.016 10.6758Q234.016 12.0635 233.438 12.8428Q232.86 13.6221 231.842 13.6221Q230.974 13.6221 230.41 13.0171Q229.846 12.4121 229.846 11.5439ZM238.076 10.5664L238.076 11.5439Q238.076 12.4121 238.64 13.0171Q239.204 13.6221 240.072 13.6221Q241.091 13.6221 241.668 12.8428Q242.246 12.0635 242.246 10.6758Q242.246 9.50684 241.706 8.84375Q241.166 8.18066 240.243 8.18066Q239.266 8.18066 238.671 8.86084Q238.076 9.54102 238.076 10.5664ZM274.99 8.91553Q275.619 8.18066 276.699 8.18066Q277.786 8.18066 278.371 8.8916Q278.955 9.60254 278.955 10.915Q278.955 12.2139 278.371 12.918Q277.786 13.6221 276.699 13.6221Q275.633 13.6221 274.997 12.9043Q274.361 12.1865 274.361 10.9424Q274.361 9.65039 274.99 8.91553ZM305.273 8.91553Q305.902 8.18066 306.982 8.18066Q308.069 8.18066 308.654 8.8916Q309.238 9.60254 309.238 10.915Q309.238 12.2139 308.654 12.918Q308.069 13.6221 306.982 13.6221Q305.916 13.6221 305.28 12.9043Q304.645 12.1865 304.645 10.9424Q304.645 9.65039 305.273 8.91553ZM373.934 10.2314Q373.927 9.26074 373.465 8.7207Q373.004 8.18066 372.184 8.18066Q371.391 8.18066 370.837 8.74805Q370.283 9.31543 370.153 10.2314L373.934 10.2314ZM118.092 10.9424L121.824 10.9424L121.824 10.0605L118.092 10.0605L118.092 10.9424ZM143.897 10.8604L142.209 11.0928Q141.43 11.2021 141.033 11.479Q140.637 11.7559 140.637 12.46Q140.637 12.9727 141.002 13.2974Q141.368 13.6221 141.977 13.6221Q142.811 13.6221 143.354 13.0376Q143.897 12.4531 143.897 11.5576L143.897 10.8604ZM209.666 10.8604L207.978 11.0928Q207.198 11.2021 206.802 11.479Q206.405 11.7559 206.405 12.46Q206.405 12.9727 206.771 13.2974Q207.137 13.6221 207.745 13.6221Q208.579 13.6221 209.123 13.0376Q209.666 12.4531 209.666 11.5576L209.666 10.8604ZM225.491 10.8604L223.803 11.0928Q223.023 11.2021 222.627 11.479Q222.23 11.7559 222.23 12.46Q222.23 12.9727 222.596 13.2974Q222.962 13.6221 223.57 13.6221Q224.404 13.6221 224.948 13.0376Q225.491 12.4531 225.491 11.5576L225.491 10.8604ZM262.323 10.8604L260.635 11.0928Q259.855 11.2021 259.459 11.479Q259.063 11.7559 259.063 12.46Q259.063 12.9727 259.428 13.2974Q259.794 13.6221 260.402 13.6221Q261.236 13.6221 261.78 13.0376Q262.323 12.4531 262.323 11.5576L262.323 10.8604ZM323.081 11.0928L324.77 10.8604L324.77 11.5576Q324.77 12.4531 324.226 13.0376Q323.683 13.6221 322.849 13.6221Q322.24 13.6221 321.875 13.2974Q321.509 12.9727 321.509 12.46Q321.509 11.7559 321.905 11.479Q322.302 11.2021 323.081 11.0928ZM362.832 10.8604L361.144 11.0928Q360.364 11.2021 359.968 11.479Q359.571 11.7559 359.571 12.46Q359.571 12.9727 359.937 13.2974Q360.303 13.6221 360.911 13.6221Q361.745 13.6221 362.289 13.0376Q362.832 12.4531 362.832 11.5576L362.832 10.8604ZM376.63 14.3262Q376.853 14.5518 377.167 14.5518Q377.488 14.5518 377.714 14.3262Q377.939 14.1006 377.939 13.7861Q377.939 13.4717 377.714 13.2427Q377.488 13.0137 377.167 13.0137Q376.853 13.0137 376.63 13.2427Q376.408 13.4717 376.408 13.7861Q376.408 14.1006 376.63 14.3262Z" />
    </g>
    <g id="Role" transform="translate(23 183)">
      <g id="📱-Cross-platform-web,-mobiles,-desktops-app-with-Angular,-" fill="#FFFFFF">
        <path d="M16.8926 1.7207Q16.667 1.625 16.4141 1.625L9.53711 1.625Q9.27734 1.625 9.05518 1.7207Q8.83301 1.81641 8.66553 1.98389Q8.49805 2.15137 8.40234 2.37695Q8.30664 2.60254 8.30664 2.85547L8.30664 16.1172Q8.30664 16.377 8.40234 16.5991Q8.49805 16.8213 8.66553 16.9888Q8.83301 17.1563 9.05518 17.252Q9.27734 17.3477 9.53711 17.3477L16.4141 17.3477Q16.667 17.3477 16.8926 17.252Q17.1182 17.1563 17.2856 16.9888Q17.4531 16.8213 17.5488 16.5991Q17.6445 16.377 17.6445 16.1172L17.6445 2.85547Q17.6445 2.60254 17.5488 2.37695Q17.4531 2.15137 17.2856 1.98389Q17.1182 1.81641 16.8926 1.7207ZM16.6602 2.88965L16.6602 16.083Q16.6602 16.1992 16.5781 16.2813Q16.4961 16.3633 16.3799 16.3633L9.57129 16.3633Q9.45508 16.3633 9.37305 16.2813Q9.29102 16.1992 9.29102 16.083L9.29102 2.88965Q9.29102 2.77344 9.37305 2.69141Q9.45508 2.60938 9.57129 2.60938L16.3799 2.60938Q16.4961 2.60938 16.5781 2.69141Q16.6602 2.77344 16.6602 2.88965ZM14.1274 3.17676Q14.0557 3.10156 13.96 3.10156L11.9912 3.10156Q11.8887 3.10156 11.8169 3.17334Q11.7451 3.24512 11.7451 3.34766Q11.7451 3.44336 11.8203 3.51855Q11.8955 3.59375 11.9912 3.59375L13.96 3.59375Q14.0557 3.59375 14.1274 3.51855Q14.1992 3.44336 14.1992 3.34766Q14.1992 3.25195 14.1274 3.17676ZM89.7842 4.83789Q90.2012 4.83789 90.5293 5.02246L90.5293 4.01074Q90.2285 3.8877 89.7158 3.8877Q88.7656 3.8877 88.1299 4.52686Q87.4941 5.16602 87.4941 6.2666L87.4941 7.40137L86.2979 7.40137L86.2979 8.3584L87.4941 8.3584L87.4941 14.4014L88.6084 14.4014L88.6084 8.3584L90.249 8.3584L90.249 7.40137L88.6084 7.40137L88.6084 6.32129Q88.6084 4.83789 89.7842 4.83789ZM72.9336 14.4014L71.8125 14.4014L71.8125 4.03809L72.9336 4.03809L72.9336 14.4014ZM138.976 13.3896L139.003 13.3896Q139.714 14.5654 141.102 14.5654Q142.585 14.5654 143.439 13.5093Q144.294 12.4531 144.294 10.6963Q144.294 9.11719 143.532 8.17725Q142.77 7.2373 141.423 7.2373Q139.83 7.2373 139.003 8.63184L138.976 8.63184L138.976 4.03809L137.854 4.03809L137.854 14.4014L138.976 14.4014L138.976 13.3896ZM174.338 13.3896L174.365 13.3896Q175.076 14.5654 176.464 14.5654Q177.947 14.5654 178.802 13.5093Q179.656 12.4531 179.656 10.6963Q179.656 9.11719 178.894 8.17725Q178.132 7.2373 176.785 7.2373Q175.192 7.2373 174.365 8.63184L174.338 8.63184L174.338 4.03809L173.217 4.03809L173.217 14.4014L174.338 14.4014L174.338 13.3896ZM184.838 14.4014L185.959 14.4014L185.959 4.03809L184.838 4.03809L184.838 14.4014ZM213.214 14.4014L214.335 14.4014L214.335 4.03809L213.214 4.03809L213.214 8.37207L213.187 8.37207Q212.53 7.2373 211.088 7.2373Q209.632 7.2373 208.757 8.2832Q207.882 9.3291 207.882 11.0654Q207.882 12.6855 208.671 13.6255Q209.461 14.5654 210.78 14.5654Q212.407 14.5654 213.187 13.2119L213.214 13.2119L213.214 14.4014ZM235.677 14.4014L234.104 14.4014L231.015 11.0381L230.987 11.0381L230.987 14.4014L229.866 14.4014L229.866 4.03809L230.987 4.03809L230.987 10.6074L231.015 10.6074L233.954 7.40137L235.424 7.40137L232.177 10.7783L235.677 14.4014ZM318.139 14.4014L319.26 14.4014L319.26 10.0879Q319.26 7.2373 316.895 7.2373Q315.404 7.2373 314.598 8.56348L314.57 8.56348L314.57 4.03809L313.449 4.03809L313.449 14.4014L314.57 14.4014L314.57 10.4365Q314.57 9.44531 315.131 8.81299Q315.691 8.18066 316.512 8.18066Q318.139 8.18066 318.139 10.3682L318.139 14.4014ZM359.448 14.4014L358.327 14.4014L358.327 4.03809L359.448 4.03809L359.448 14.4014ZM16.168 4.0791L9.7832 4.0791L9.7832 14.8936L16.168 14.8936L16.168 4.0791ZM182.021 5.62402Q181.721 5.62402 181.509 5.41895Q181.297 5.21387 181.297 4.89941Q181.297 4.58496 181.509 4.37646Q181.721 4.16797 182.021 4.16797Q182.329 4.16797 182.544 4.37646Q182.76 4.58496 182.76 4.89941Q182.76 5.2002 182.544 5.41211Q182.329 5.62402 182.021 5.62402ZM305.376 5.41895Q305.588 5.62402 305.889 5.62402Q306.196 5.62402 306.412 5.41211Q306.627 5.2002 306.627 4.89941Q306.627 4.58496 306.412 4.37646Q306.196 4.16797 305.889 4.16797Q305.588 4.16797 305.376 4.37646Q305.164 4.58496 305.164 4.89941Q305.164 5.21387 305.376 5.41895ZM28.4795 14.5654Q30.0996 14.5654 31.1865 13.9912L31.1865 12.877Q30.1064 13.5332 28.6299 13.5332Q27.0371 13.5332 26.0562 12.4702Q25.0752 11.4072 25.0752 9.61621Q25.0752 7.72949 26.1245 6.60156Q27.1738 5.47363 28.8623 5.47363Q30.1338 5.47363 31.1865 6.06152L31.1865 4.83789Q30.2705 4.43457 28.876 4.43457Q26.7021 4.43457 25.2871 5.88379Q23.8721 7.33301 23.8721 9.68457Q23.8721 11.8721 25.1299 13.2188Q26.3877 14.5654 28.4795 14.5654ZM10.2686 7.03223L10.2686 4.57129L12.7295 4.57129L12.7295 7.03223L10.2686 7.03223ZM13.2217 5.55566L13.2217 4.57129L14.1992 4.57129L14.1992 5.55566L13.2217 5.55566ZM15.6758 4.57129L15.6758 5.55566L14.6914 5.55566L14.6914 4.57129L15.6758 4.57129ZM332.945 14.4014L331.674 14.4014L330.635 11.6533L326.479 11.6533L325.501 14.4014L324.223 14.4014L327.982 4.59863L329.172 4.59863L332.945 14.4014ZM85.5732 14.333Q85.1768 14.5518 84.5273 14.5518Q82.6885 14.5518 82.6885 12.501L82.6885 8.3584L81.4854 8.3584L81.4854 7.40137L82.6885 7.40137L82.6885 5.69238L83.8096 5.33008L83.8096 7.40137L85.5732 7.40137L85.5732 8.3584L83.8096 8.3584L83.8096 12.3027Q83.8096 13.0068 84.0488 13.3076Q84.2881 13.6084 84.8418 13.6084Q85.2656 13.6084 85.5732 13.376L85.5732 14.333ZM239.026 14.5518Q239.676 14.5518 240.072 14.333L240.072 13.376Q239.765 13.6084 239.341 13.6084Q238.787 13.6084 238.548 13.3076Q238.309 13.0068 238.309 12.3027L238.309 8.3584L240.072 8.3584L240.072 7.40137L238.309 7.40137L238.309 5.33008L237.188 5.69238L237.188 7.40137L235.984 7.40137L235.984 8.3584L237.188 8.3584L237.188 12.501Q237.188 14.5518 239.026 14.5518ZM311.952 14.333Q311.556 14.5518 310.906 14.5518Q309.067 14.5518 309.067 12.501L309.067 8.3584L307.864 8.3584L307.864 7.40137L309.067 7.40137L309.067 5.69238L310.188 5.33008L310.188 7.40137L311.952 7.40137L311.952 8.3584L310.188 8.3584L310.188 12.3027Q310.188 13.0068 310.428 13.3076Q310.667 13.6084 311.221 13.6084Q311.645 13.6084 311.952 13.376L311.952 14.333ZM330.259 10.6211L328.721 6.44434Q328.646 6.23926 328.57 5.78809L328.543 5.78809Q328.475 6.20508 328.386 6.44434L326.861 10.6211L330.259 10.6211ZM13.2217 7.03223L13.2217 6.04785L14.1992 6.04785L14.1992 7.03223L13.2217 7.03223ZM15.6758 6.04785L15.6758 7.03223L14.6914 7.03223L14.6914 6.04785L15.6758 6.04785ZM38.3472 13.5845Q39.2734 14.5654 40.8252 14.5654Q42.418 14.5654 43.3647 13.5571Q44.3115 12.5488 44.3115 10.874Q44.3115 9.16504 43.4331 8.20117Q42.5547 7.2373 40.9893 7.2373Q39.3486 7.2373 38.3848 8.22852Q37.4209 9.21973 37.4209 10.9834Q37.4209 12.6035 38.3472 13.5845ZM45.6787 14.1484L45.6787 12.9453Q46.5947 13.6221 47.6953 13.6221Q49.1719 13.6221 49.1719 12.6377Q49.1719 12.3574 49.0454 12.1626Q48.9189 11.9678 48.7036 11.8174Q48.4883 11.667 48.1978 11.5474Q47.9072 11.4277 47.5723 11.2979Q47.1074 11.1133 46.7554 10.9253Q46.4033 10.7373 46.1675 10.5015Q45.9316 10.2656 45.812 9.96484Q45.6924 9.66406 45.6924 9.26074Q45.6924 8.76855 45.918 8.38916Q46.1436 8.00977 46.5195 7.75342Q46.8955 7.49707 47.3774 7.36719Q47.8594 7.2373 48.3721 7.2373Q49.2813 7.2373 49.999 7.55176L49.999 8.68652Q49.2266 8.18066 48.2217 8.18066Q47.9072 8.18066 47.6543 8.25244Q47.4014 8.32422 47.2202 8.4541Q47.0391 8.58398 46.9399 8.76514Q46.8408 8.94629 46.8408 9.16504Q46.8408 9.43848 46.9399 9.62305Q47.0391 9.80762 47.2305 9.95117Q47.4219 10.0947 47.6953 10.2109Q47.9688 10.3271 48.3174 10.4639Q48.7822 10.6416 49.1514 10.8296Q49.5205 11.0176 49.7803 11.2534Q50.04 11.4893 50.1802 11.7969Q50.3203 12.1045 50.3203 12.5283Q50.3203 13.0479 50.0913 13.4307Q49.8623 13.8135 49.4795 14.0664Q49.0967 14.3193 48.5977 14.4424Q48.0986 14.5654 47.5518 14.5654Q46.4717 14.5654 45.6787 14.1484ZM51.6191 12.9453L51.6191 14.1484Q52.4121 14.5654 53.4922 14.5654Q54.0391 14.5654 54.5381 14.4424Q55.0371 14.3193 55.4199 14.0664Q55.8027 13.8135 56.0317 13.4307Q56.2607 13.0479 56.2607 12.5283Q56.2607 12.1045 56.1206 11.7969Q55.9805 11.4893 55.7207 11.2534Q55.4609 11.0176 55.0918 10.8296Q54.7227 10.6416 54.2578 10.4639Q53.9092 10.3271 53.6357 10.2109Q53.3623 10.0947 53.1709 9.95117Q52.9795 9.80762 52.8804 9.62305Q52.7813 9.43848 52.7813 9.16504Q52.7813 8.94629 52.8804 8.76514Q52.9795 8.58398 53.1606 8.4541Q53.3418 8.32422 53.5947 8.25244Q53.8477 8.18066 54.1621 8.18066Q55.167 8.18066 55.9395 8.68652L55.9395 7.55176Q55.2217 7.2373 54.3125 7.2373Q53.7998 7.2373 53.3179 7.36719Q52.8359 7.49707 52.46 7.75342Q52.084 8.00977 51.8584 8.38916Q51.6328 8.76855 51.6328 9.26074Q51.6328 9.66406 51.7524 9.96484Q51.8721 10.2656 52.1079 10.5015Q52.3438 10.7373 52.6958 10.9253Q53.0479 11.1133 53.5127 11.2979Q53.8477 11.4277 54.1382 11.5474Q54.4287 11.667 54.644 11.8174Q54.8594 11.9678 54.9858 12.1626Q55.1123 12.3574 55.1123 12.6377Q55.1123 13.6221 53.6357 13.6221Q52.5352 13.6221 51.6191 12.9453ZM64.7031 13.3896L64.7305 13.3896Q65.4688 14.5654 66.8291 14.5654Q68.3125 14.5654 69.167 13.5093Q70.0215 12.4531 70.0215 10.6963Q70.0215 9.11719 69.2627 8.17725Q68.5039 7.2373 67.1504 7.2373Q65.5576 7.2373 64.7305 8.63184L64.7031 8.63184L64.7031 7.40137L63.582 7.40137L63.582 17.6211L64.7031 17.6211L64.7031 13.3896ZM79.0928 14.4014L80.2139 14.4014L80.2139 9.84863Q80.2139 7.2373 77.7461 7.2373Q76.3994 7.2373 75.3672 7.89355L75.3672 9.04199Q76.3857 8.18066 77.6504 8.18066Q79.0928 8.18066 79.0928 9.96484L76.9941 10.2588Q74.6836 10.5801 74.6836 12.542Q74.6836 13.458 75.2749 14.0117Q75.8662 14.5654 76.9121 14.5654Q78.334 14.5654 79.0654 13.3076L79.0928 13.3076L79.0928 14.4014ZM94.3779 14.5654Q92.8262 14.5654 91.8999 13.5845Q90.9736 12.6035 90.9736 10.9834Q90.9736 9.21973 91.9375 8.22852Q92.9014 7.2373 94.542 7.2373Q96.1074 7.2373 96.9858 8.20117Q97.8643 9.16504 97.8643 10.874Q97.8643 12.5488 96.9175 13.5571Q95.9707 14.5654 94.3779 14.5654ZM114.462 14.4014L113.341 14.4014L113.341 10.3818Q113.341 9.21973 112.982 8.7002Q112.623 8.18066 111.775 8.18066Q111.058 8.18066 110.555 8.83691Q110.053 9.49316 110.053 10.4092L110.053 14.4014L108.932 14.4014L108.932 10.2451Q108.932 8.18066 107.339 8.18066Q106.601 8.18066 106.122 8.79932Q105.644 9.41797 105.644 10.4092L105.644 14.4014L104.522 14.4014L104.522 7.40137L105.644 7.40137L105.644 8.50879L105.671 8.50879Q106.416 7.2373 107.845 7.2373Q108.563 7.2373 109.096 7.63721Q109.629 8.03711 109.827 8.68652Q110.606 7.2373 112.151 7.2373Q114.462 7.2373 114.462 10.0879L114.462 14.4014ZM136.159 11.1816L131.217 11.1816Q131.244 12.3506 131.846 12.9863Q132.447 13.6221 133.5 13.6221Q134.683 13.6221 135.674 12.8428L135.674 13.8955Q134.751 14.5654 133.233 14.5654Q131.75 14.5654 130.902 13.6118Q130.055 12.6582 130.055 10.9287Q130.055 9.29492 130.981 8.26611Q131.907 7.2373 133.281 7.2373Q134.655 7.2373 135.407 8.12598Q136.159 9.01465 136.159 10.5938L136.159 11.1816ZM161.773 14.4014L162.895 14.4014L162.895 10.0879Q162.895 7.2373 160.584 7.2373Q159.039 7.2373 158.26 8.68652Q158.062 8.03711 157.528 7.63721Q156.995 7.2373 156.277 7.2373Q154.849 7.2373 154.104 8.50879L154.076 8.50879L154.076 7.40137L152.955 7.40137L152.955 14.4014L154.076 14.4014L154.076 10.4092Q154.076 9.41797 154.555 8.79932Q155.033 8.18066 155.771 8.18066Q157.364 8.18066 157.364 10.2451L157.364 14.4014L158.485 14.4014L158.485 10.4092Q158.485 9.49316 158.988 8.83691Q159.49 8.18066 160.208 8.18066Q161.056 8.18066 161.415 8.7002Q161.773 9.21973 161.773 10.3818L161.773 14.4014ZM167.939 14.5654Q166.388 14.5654 165.461 13.5845Q164.535 12.6035 164.535 10.9834Q164.535 9.21973 165.499 8.22852Q166.463 7.2373 168.104 7.2373Q169.669 7.2373 170.547 8.20117Q171.426 9.16504 171.426 10.874Q171.426 12.5488 170.479 13.5571Q169.532 14.5654 167.939 14.5654ZM193.854 11.1816L188.912 11.1816Q188.939 12.3506 189.541 12.9863Q190.143 13.6221 191.195 13.6221Q192.378 13.6221 193.369 12.8428L193.369 13.8955Q192.446 14.5654 190.929 14.5654Q189.445 14.5654 188.598 13.6118Q187.75 12.6582 187.75 10.9287Q187.75 9.29492 188.676 8.26611Q189.603 7.2373 190.977 7.2373Q192.351 7.2373 193.103 8.12598Q193.854 9.01465 193.854 10.5938L193.854 11.1816ZM195.126 12.9453L195.126 14.1484Q195.919 14.5654 196.999 14.5654Q197.546 14.5654 198.045 14.4424Q198.544 14.3193 198.927 14.0664Q199.31 13.8135 199.539 13.4307Q199.768 13.0479 199.768 12.5283Q199.768 12.1045 199.627 11.7969Q199.487 11.4893 199.228 11.2534Q198.968 11.0176 198.599 10.8296Q198.229 10.6416 197.765 10.4639Q197.416 10.3271 197.143 10.2109Q196.869 10.0947 196.678 9.95117Q196.486 9.80762 196.387 9.62305Q196.288 9.43848 196.288 9.16504Q196.288 8.94629 196.387 8.76514Q196.486 8.58398 196.667 8.4541Q196.849 8.32422 197.102 8.25244Q197.354 8.18066 197.669 8.18066Q198.674 8.18066 199.446 8.68652L199.446 7.55176Q198.729 7.2373 197.819 7.2373Q197.307 7.2373 196.825 7.36719Q196.343 7.49707 195.967 7.75342Q195.591 8.00977 195.365 8.38916Q195.14 8.76855 195.14 9.26074Q195.14 9.66406 195.259 9.96484Q195.379 10.2656 195.615 10.5015Q195.851 10.7373 196.203 10.9253Q196.555 11.1133 197.02 11.2979Q197.354 11.4277 197.645 11.5474Q197.936 11.667 198.151 11.8174Q198.366 11.9678 198.493 12.1626Q198.619 12.3574 198.619 12.6377Q198.619 13.6221 197.143 13.6221Q196.042 13.6221 195.126 12.9453ZM222.23 11.1816L217.288 11.1816Q217.315 12.3506 217.917 12.9863Q218.519 13.6221 219.571 13.6221Q220.754 13.6221 221.745 12.8428L221.745 13.8955Q220.822 14.5654 219.305 14.5654Q217.821 14.5654 216.974 13.6118Q216.126 12.6582 216.126 10.9287Q216.126 9.29492 217.052 8.26611Q217.979 7.2373 219.353 7.2373Q220.727 7.2373 221.479 8.12598Q222.23 9.01465 222.23 10.5938L222.23 11.1816ZM223.502 12.9453L223.502 14.1484Q224.295 14.5654 225.375 14.5654Q225.922 14.5654 226.421 14.4424Q226.92 14.3193 227.303 14.0664Q227.686 13.8135 227.915 13.4307Q228.144 13.0479 228.144 12.5283Q228.144 12.1045 228.003 11.7969Q227.863 11.4893 227.604 11.2534Q227.344 11.0176 226.975 10.8296Q226.605 10.6416 226.141 10.4639Q225.792 10.3271 225.519 10.2109Q225.245 10.0947 225.054 9.95117Q224.862 9.80762 224.763 9.62305Q224.664 9.43848 224.664 9.16504Q224.664 8.94629 224.763 8.76514Q224.862 8.58398 225.043 8.4541Q225.225 8.32422 225.478 8.25244Q225.73 8.18066 226.045 8.18066Q227.05 8.18066 227.822 8.68652L227.822 7.55176Q227.104 7.2373 226.195 7.2373Q225.683 7.2373 225.201 7.36719Q224.719 7.49707 224.343 7.75342Q223.967 8.00977 223.741 8.38916Q223.516 8.76855 223.516 9.26074Q223.516 9.66406 223.635 9.96484Q223.755 10.2656 223.991 10.5015Q224.227 10.7373 224.579 10.9253Q224.931 11.1133 225.396 11.2979Q225.73 11.4277 226.021 11.5474Q226.312 11.667 226.527 11.8174Q226.742 11.9678 226.869 12.1626Q226.995 12.3574 226.995 12.6377Q226.995 13.6221 225.519 13.6221Q224.418 13.6221 223.502 12.9453ZM244.495 14.5654Q242.943 14.5654 242.017 13.5845Q241.091 12.6035 241.091 10.9834Q241.091 9.21973 242.055 8.22852Q243.019 7.2373 244.659 7.2373Q246.225 7.2373 247.103 8.20117Q247.981 9.16504 247.981 10.874Q247.981 12.5488 247.035 13.5571Q246.088 14.5654 244.495 14.5654ZM250.894 13.3896L250.921 13.3896Q251.659 14.5654 253.02 14.5654Q254.503 14.5654 255.357 13.5093Q256.212 12.4531 256.212 10.6963Q256.212 9.11719 255.453 8.17725Q254.694 7.2373 253.341 7.2373Q251.748 7.2373 250.921 8.63184L250.894 8.63184L250.894 7.40137L249.772 7.40137L249.772 17.6211L250.894 17.6211L250.894 13.3896ZM257.579 14.1484L257.579 12.9453Q258.495 13.6221 259.596 13.6221Q261.072 13.6221 261.072 12.6377Q261.072 12.3574 260.946 12.1626Q260.819 11.9678 260.604 11.8174Q260.389 11.667 260.098 11.5474Q259.808 11.4277 259.473 11.2979Q259.008 11.1133 258.656 10.9253Q258.304 10.7373 258.068 10.5015Q257.832 10.2656 257.712 9.96484Q257.593 9.66406 257.593 9.26074Q257.593 8.76855 257.818 8.38916Q258.044 8.00977 258.42 7.75342Q258.796 7.49707 259.278 7.36719Q259.76 7.2373 260.272 7.2373Q261.182 7.2373 261.899 7.55176L261.899 8.68652Q261.127 8.18066 260.122 8.18066Q259.808 8.18066 259.555 8.25244Q259.302 8.32422 259.121 8.4541Q258.939 8.58398 258.84 8.76514Q258.741 8.94629 258.741 9.16504Q258.741 9.43848 258.84 9.62305Q258.939 9.80762 259.131 9.95117Q259.322 10.0947 259.596 10.2109Q259.869 10.3271 260.218 10.4639Q260.683 10.6416 261.052 10.8296Q261.421 11.0176 261.681 11.2534Q261.94 11.4893 262.081 11.7969Q262.221 12.1045 262.221 12.5283Q262.221 13.0479 261.992 13.4307Q261.763 13.8135 261.38 14.0664Q260.997 14.3193 260.498 14.4424Q259.999 14.5654 259.452 14.5654Q258.372 14.5654 257.579 14.1484ZM271.668 14.4014L272.789 14.4014L272.789 9.84863Q272.789 7.2373 270.321 7.2373Q268.975 7.2373 267.942 7.89355L267.942 9.04199Q268.961 8.18066 270.226 8.18066Q271.668 8.18066 271.668 9.96484L269.569 10.2588Q267.259 10.5801 267.259 12.542Q267.259 13.458 267.85 14.0117Q268.441 14.5654 269.487 14.5654Q270.909 14.5654 271.641 13.3076L271.668 13.3076L271.668 14.4014ZM276.05 13.3896L276.022 13.3896L276.022 17.6211L274.901 17.6211L274.901 7.40137L276.022 7.40137L276.022 8.63184L276.05 8.63184Q276.877 7.2373 278.47 7.2373Q279.823 7.2373 280.582 8.17725Q281.341 9.11719 281.341 10.6963Q281.341 12.4531 280.486 13.5093Q279.632 14.5654 278.148 14.5654Q276.788 14.5654 276.05 13.3896ZM284.253 13.3896L284.28 13.3896Q285.019 14.5654 286.379 14.5654Q287.862 14.5654 288.717 13.5093Q289.571 12.4531 289.571 10.6963Q289.571 9.11719 288.813 8.17725Q288.054 7.2373 286.7 7.2373Q285.107 7.2373 284.28 8.63184L284.253 8.63184L284.253 7.40137L283.132 7.40137L283.132 17.6211L284.253 17.6211L284.253 13.3896ZM338.927 14.4014L340.048 14.4014L340.048 10.1221Q340.048 8.7207 339.439 7.979Q338.831 7.2373 337.683 7.2373Q336.179 7.2373 335.386 8.56348L335.358 8.56348L335.358 7.40137L334.237 7.40137L334.237 14.4014L335.358 14.4014L335.358 10.4092Q335.358 9.44531 335.909 8.81299Q336.459 8.18066 337.3 8.18066Q338.927 8.18066 338.927 10.4092L338.927 14.4014ZM348.135 13.8408Q348.135 17.6963 344.443 17.6963Q343.145 17.6963 342.174 17.2041L342.174 16.083Q343.356 16.7393 344.43 16.7393Q347.014 16.7393 347.014 13.9912L347.014 13.2256L346.986 13.2256Q346.187 14.5654 344.58 14.5654Q343.274 14.5654 342.478 13.6323Q341.682 12.6992 341.682 11.127Q341.682 9.34277 342.54 8.29004Q343.397 7.2373 344.888 7.2373Q346.303 7.2373 346.986 8.37207L347.014 8.37207L347.014 7.40137L348.135 7.40137L348.135 13.8408ZM365.607 14.4014L366.729 14.4014L366.729 9.84863Q366.729 7.2373 364.261 7.2373Q362.914 7.2373 361.882 7.89355L361.882 9.04199Q362.9 8.18066 364.165 8.18066Q365.607 8.18066 365.607 9.96484L363.509 10.2588Q361.198 10.5801 361.198 12.542Q361.198 13.458 361.79 14.0117Q362.381 14.5654 363.427 14.5654Q364.849 14.5654 365.58 13.3076L365.607 13.3076L365.607 14.4014ZM36.6826 8.53613Q36.3887 8.31055 35.835 8.31055Q35.1172 8.31055 34.6353 8.9873Q34.1533 9.66406 34.1533 10.833L34.1533 14.4014L33.0322 14.4014L33.0322 7.40137L34.1533 7.40137L34.1533 8.84375L34.1807 8.84375Q34.4199 8.10547 34.9121 7.69189Q35.4043 7.27832 36.0127 7.27832Q36.4502 7.27832 36.6826 7.37402L36.6826 8.53613ZM102.458 8.31055Q103.012 8.31055 103.306 8.53613L103.306 7.37402Q103.073 7.27832 102.636 7.27832Q102.027 7.27832 101.535 7.69189Q101.043 8.10547 100.804 8.84375L100.776 8.84375L100.776 7.40137L99.6553 7.40137L99.6553 14.4014L100.776 14.4014L100.776 10.833Q100.776 9.66406 101.258 8.9873Q101.74 8.31055 102.458 8.31055ZM372.491 8.53613Q372.197 8.31055 371.644 8.31055Q370.926 8.31055 370.444 8.9873Q369.962 9.66406 369.962 10.833L369.962 14.4014L368.841 14.4014L368.841 7.40137L369.962 7.40137L369.962 8.84375L369.989 8.84375Q370.229 8.10547 370.721 7.69189Q371.213 7.27832 371.821 7.27832Q372.259 7.27832 372.491 7.37402L372.491 8.53613ZM127.136 14.4014L129.234 7.40137L128.127 7.40137L126.705 12.6787Q126.603 13.041 126.589 13.3076L126.534 13.3076Q126.5 12.9316 126.432 12.6787L124.982 7.40137L123.957 7.40137L122.344 12.6514Q122.241 12.9932 122.221 13.2939L122.166 13.2939Q122.139 12.9043 122.07 12.665L120.621 7.40137L119.445 7.40137L121.564 14.4014L122.686 14.4014L124.251 9.37695Q124.374 8.98731 124.395 8.74121L124.422 8.74121Q124.449 9.10352 124.531 9.39063L125.974 14.4014L127.136 14.4014ZM182.568 14.4014L181.447 14.4014L181.447 7.40137L182.568 7.40137L182.568 14.4014ZM304.016 7.40137L301.917 14.4014L300.755 14.4014L299.313 9.39063Q299.23 9.10352 299.203 8.74121L299.176 8.74121Q299.155 8.98731 299.032 9.37695L297.467 14.4014L296.346 14.4014L294.227 7.40137L295.402 7.40137L296.852 12.665Q296.92 12.9043 296.947 13.2939L297.002 13.2939Q297.022 12.9932 297.125 12.6514L298.738 7.40137L299.764 7.40137L301.213 12.6787Q301.281 12.9316 301.315 13.3076L301.37 13.3076Q301.384 13.041 301.486 12.6787L302.908 7.40137L304.016 7.40137ZM305.314 14.4014L306.436 14.4014L306.436 7.40137L305.314 7.40137L305.314 14.4014ZM354.943 14.4014L356.064 14.4014L356.064 7.40137L354.943 7.40137L354.943 11.4346Q354.943 12.4121 354.414 13.0171Q353.884 13.6221 353.063 13.6221Q351.368 13.6221 351.368 11.4072L351.368 7.40137L350.254 7.40137L350.254 11.585Q350.254 14.5654 352.756 14.5654Q354.219 14.5654 354.916 13.2939L354.943 13.2939L354.943 14.4014ZM10.2686 9.97852L10.2686 7.52441L12.7295 7.52441L12.7295 9.97852L10.2686 9.97852ZM15.6758 7.52441L15.6758 9.97852L13.2217 9.97852L13.2217 7.52441L15.6758 7.52441ZM39.1982 8.91553Q39.8271 8.18066 40.9072 8.18066Q41.9941 8.18066 42.5786 8.8916Q43.1631 9.60254 43.1631 10.915Q43.1631 12.2139 42.5786 12.918Q41.9941 13.6221 40.9072 13.6221Q39.8408 13.6221 39.2051 12.9043Q38.5693 12.1865 38.5693 10.9424Q38.5693 9.65039 39.1982 8.91553ZM64.7031 11.5439L64.7031 10.5664Q64.7031 9.54102 65.2979 8.86084Q65.8926 8.18066 66.8701 8.18066Q67.793 8.18066 68.333 8.84375Q68.873 9.50684 68.873 10.6758Q68.873 12.0635 68.2954 12.8428Q67.7178 13.6221 66.6992 13.6221Q65.8311 13.6221 65.2671 13.0171Q64.7031 12.4121 64.7031 11.5439ZM94.46 8.18066Q93.3799 8.18066 92.751 8.91553Q92.1221 9.65039 92.1221 10.9424Q92.1221 12.1865 92.7578 12.9043Q93.3936 13.6221 94.46 13.6221Q95.5469 13.6221 96.1313 12.918Q96.7158 12.2139 96.7158 10.915Q96.7158 9.60254 96.1313 8.8916Q95.5469 8.18066 94.46 8.18066ZM135.011 10.2314Q135.004 9.26074 134.542 8.7207Q134.081 8.18066 133.261 8.18066Q132.468 8.18066 131.914 8.74805Q131.36 9.31543 131.23 10.2314L135.011 10.2314ZM138.976 11.5439L138.976 10.5664Q138.976 9.54102 139.57 8.86084Q140.165 8.18066 141.143 8.18066Q142.065 8.18066 142.605 8.84375Q143.146 9.50684 143.146 10.6758Q143.146 12.0635 142.568 12.8428Q141.99 13.6221 140.972 13.6221Q140.104 13.6221 139.54 13.0171Q138.976 12.4121 138.976 11.5439ZM168.021 8.18066Q166.941 8.18066 166.313 8.91553Q165.684 9.65039 165.684 10.9424Q165.684 12.1865 166.319 12.9043Q166.955 13.6221 168.021 13.6221Q169.108 13.6221 169.693 12.918Q170.277 12.2139 170.277 10.915Q170.277 9.60254 169.693 8.8916Q169.108 8.18066 168.021 8.18066ZM174.338 11.5439L174.338 10.5664Q174.338 9.54102 174.933 8.86084Q175.527 8.18066 176.505 8.18066Q177.428 8.18066 177.968 8.84375Q178.508 9.50684 178.508 10.6758Q178.508 12.0635 177.93 12.8428Q177.353 13.6221 176.334 13.6221Q175.466 13.6221 174.902 13.0171Q174.338 12.4121 174.338 11.5439ZM192.706 10.2314Q192.699 9.26074 192.238 8.7207Q191.776 8.18066 190.956 8.18066Q190.163 8.18066 189.609 8.74805Q189.056 9.31543 188.926 10.2314L192.706 10.2314ZM213.214 10.2041L213.214 11.2363Q213.214 12.2686 212.629 12.9453Q212.045 13.6221 211.108 13.6221Q210.158 13.6221 209.594 12.9214Q209.03 12.2207 209.03 11.0107Q209.03 9.68457 209.618 8.93262Q210.206 8.18066 211.231 8.18066Q212.093 8.18066 212.653 8.76855Q213.214 9.35645 213.214 10.2041ZM221.082 10.2314Q221.075 9.26074 220.614 8.7207Q220.152 8.18066 219.332 8.18066Q218.539 8.18066 217.985 8.74805Q217.432 9.31543 217.302 10.2314L221.082 10.2314ZM244.577 8.18066Q243.497 8.18066 242.868 8.91553Q242.239 9.65039 242.239 10.9424Q242.239 12.1865 242.875 12.9043Q243.511 13.6221 244.577 13.6221Q245.664 13.6221 246.249 12.918Q246.833 12.2139 246.833 10.915Q246.833 9.60254 246.249 8.8916Q245.664 8.18066 244.577 8.18066ZM250.894 11.5439L250.894 10.5664Q250.894 9.54102 251.488 8.86084Q252.083 8.18066 253.061 8.18066Q253.983 8.18066 254.523 8.84375Q255.063 9.50684 255.063 10.6758Q255.063 12.0635 254.486 12.8428Q253.908 13.6221 252.89 13.6221Q252.021 13.6221 251.458 13.0171Q250.894 12.4121 250.894 11.5439ZM276.022 10.5664L276.022 11.5439Q276.022 12.4121 276.586 13.0171Q277.15 13.6221 278.019 13.6221Q279.037 13.6221 279.615 12.8428Q280.192 12.0635 280.192 10.6758Q280.192 9.50684 279.652 8.84375Q279.112 8.18066 278.189 8.18066Q277.212 8.18066 276.617 8.86084Q276.022 9.54102 276.022 10.5664ZM284.253 11.5439L284.253 10.5664Q284.253 9.54102 284.848 8.86084Q285.442 8.18066 286.42 8.18066Q287.343 8.18066 287.883 8.84375Q288.423 9.50684 288.423 10.6758Q288.423 12.0635 287.845 12.8428Q287.268 13.6221 286.249 13.6221Q285.381 13.6221 284.817 13.0171Q284.253 12.4121 284.253 11.5439ZM347.014 11.2363L347.014 10.2041Q347.014 9.37012 346.45 8.77539Q345.886 8.18066 345.045 8.18066Q344.006 8.18066 343.418 8.93604Q342.83 9.69141 342.83 11.0518Q342.83 12.2207 343.394 12.9214Q343.958 13.6221 344.888 13.6221Q345.831 13.6221 346.422 12.9521Q347.014 12.2822 347.014 11.2363ZM61.5654 10.9424L57.833 10.9424L57.833 10.0605L61.5654 10.0605L61.5654 10.9424ZM15.6758 10.4707L15.6758 12.9248L10.2686 12.9248L10.2686 10.4707L15.6758 10.4707ZM77.4043 11.0928L79.0928 10.8604L79.0928 11.5576Q79.0928 12.4531 78.5493 13.0376Q78.0059 13.6221 77.1719 13.6221Q76.5635 13.6221 76.1978 13.2974Q75.832 12.9727 75.832 12.46Q75.832 11.7559 76.2285 11.479Q76.625 11.2021 77.4043 11.0928ZM269.979 11.0928L271.668 10.8604L271.668 11.5576Q271.668 12.4531 271.125 13.0376Q270.581 13.6221 269.747 13.6221Q269.139 13.6221 268.773 13.2974Q268.407 12.9727 268.407 12.46Q268.407 11.7559 268.804 11.479Q269.2 11.2021 269.979 11.0928ZM363.919 11.0928L365.607 10.8604L365.607 11.5576Q365.607 12.4531 365.064 13.0376Q364.521 13.6221 363.687 13.6221Q363.078 13.6221 362.712 13.2974Q362.347 12.9727 362.347 12.46Q362.347 11.7559 362.743 11.479Q363.14 11.2021 363.919 11.0928ZM147.11 12.8428L146.017 16.2061L145.217 16.2061L146.017 12.8428L147.11 12.8428ZM202.516 12.8428L201.422 16.2061L200.622 16.2061L201.422 12.8428L202.516 12.8428ZM373.64 16.2061L374.733 12.8428L373.64 12.8428L372.84 16.2061L373.64 16.2061ZM12.7295 13.417L12.7295 14.4014L10.2686 14.4014L10.2686 13.417L12.7295 13.417ZM15.6758 13.417L15.6758 14.4014L13.2217 14.4014L13.2217 13.417L15.6758 13.417ZM13.2217 15.3857L12.7295 15.3857L12.7295 15.8711L13.2217 15.8711L13.2217 15.3857Z" />
      </g>
      <g id="Ionic,-and-Electron." fill="#FFFFFF">
        <path d="M193.366 33.4014L192.245 33.4014L192.245 32.2119L192.217 32.2119Q191.438 33.5654 189.811 33.5654Q188.492 33.5654 187.702 32.6255Q186.913 31.6855 186.913 30.0654Q186.913 28.3291 187.788 27.2832Q188.663 26.2373 190.119 26.2373Q191.561 26.2373 192.217 27.3721L192.245 27.3721L192.245 23.0381L193.366 23.0381L193.366 33.4014ZM207.673 33.4014L206.552 33.4014L206.552 23.0381L207.673 23.0381L207.673 33.4014ZM155.679 24.4189Q155.891 24.624 156.192 24.624Q156.5 24.624 156.715 24.4121Q156.93 24.2002 156.93 23.8994Q156.93 23.585 156.715 23.3765Q156.5 23.168 156.192 23.168Q155.891 23.168 155.679 23.3765Q155.467 23.585 155.467 23.8994Q155.467 24.2139 155.679 24.4189ZM135.917 33.4014L137.065 33.4014L137.065 23.5986L135.917 23.5986L135.917 33.4014ZM199.621 33.4014L204.816 33.4014L204.816 32.3623L200.769 32.3623L200.769 28.9307L204.31 28.9307L204.31 27.8984L200.769 27.8984L200.769 24.6377L204.597 24.6377L204.597 23.5986L199.621 23.5986L199.621 33.4014ZM225.932 33.5518Q226.582 33.5518 226.978 33.333L226.978 32.376Q226.67 32.6084 226.247 32.6084Q225.693 32.6084 225.454 32.3076Q225.214 32.0068 225.214 31.3027L225.214 27.3584L226.978 27.3584L226.978 26.4014L225.214 26.4014L225.214 24.3301L224.093 24.6924L224.093 26.4014L222.89 26.4014L222.89 27.3584L224.093 27.3584L224.093 31.501Q224.093 33.5518 225.932 33.5518ZM139.939 32.5845Q140.866 33.5654 142.417 33.5654Q144.01 33.5654 144.957 32.5571Q145.904 31.5488 145.904 29.874Q145.904 28.165 145.025 27.2012Q144.147 26.2373 142.582 26.2373Q140.941 26.2373 139.977 27.2285Q139.013 28.2197 139.013 29.9834Q139.013 31.6035 139.939 32.5845ZM153.505 33.4014L152.384 33.4014L152.384 29.4092Q152.384 27.1807 150.757 27.1807Q149.917 27.1807 149.366 27.813Q148.816 28.4453 148.816 29.4092L148.816 33.4014L147.695 33.4014L147.695 26.4014L148.816 26.4014L148.816 27.5635L148.843 27.5635Q149.636 26.2373 151.14 26.2373Q152.289 26.2373 152.897 26.979Q153.505 27.7207 153.505 29.1221L153.505 33.4014ZM163.78 33.0801Q162.973 33.5654 161.866 33.5654Q160.369 33.5654 159.449 32.5913Q158.53 31.6172 158.53 30.0654Q158.53 28.3359 159.521 27.2866Q160.512 26.2373 162.167 26.2373Q163.089 26.2373 163.793 26.5791L163.793 27.7275Q163.014 27.1807 162.125 27.1807Q161.052 27.1807 160.365 27.9497Q159.678 28.7188 159.678 29.9697Q159.678 31.2002 160.324 31.9111Q160.97 32.6221 162.057 32.6221Q162.973 32.6221 163.78 32.0137L163.78 33.0801ZM177.356 33.4014L176.235 33.4014L176.235 32.3076L176.208 32.3076Q175.476 33.5654 174.054 33.5654Q173.008 33.5654 172.417 33.0117Q171.826 32.458 171.826 31.542Q171.826 29.5801 174.136 29.2588L176.235 28.9648Q176.235 27.1807 174.792 27.1807Q173.528 27.1807 172.509 28.042L172.509 26.8936Q173.542 26.2373 174.888 26.2373Q177.356 26.2373 177.356 28.8486L177.356 33.4014ZM184.158 33.4014L185.279 33.4014L185.279 29.1221Q185.279 27.7207 184.67 26.979Q184.062 26.2373 182.914 26.2373Q181.41 26.2373 180.617 27.5635L180.589 27.5635L180.589 26.4014L179.468 26.4014L179.468 33.4014L180.589 33.4014L180.589 29.4092Q180.589 28.4453 181.14 27.813Q181.69 27.1807 182.531 27.1807Q184.158 27.1807 184.158 29.4092L184.158 33.4014ZM210.626 30.1816L215.569 30.1816L215.569 29.5938Q215.569 28.0146 214.817 27.126Q214.065 26.2373 212.691 26.2373Q211.317 26.2373 210.391 27.2661Q209.464 28.2949 209.464 29.9287Q209.464 31.6582 210.312 32.6118Q211.16 33.5654 212.643 33.5654Q214.161 33.5654 215.083 32.8955L215.083 31.8428Q214.092 32.6221 212.91 32.6221Q211.857 32.6221 211.255 31.9863Q210.654 31.3506 210.626 30.1816ZM222.036 33.0801Q221.229 33.5654 220.122 33.5654Q218.625 33.5654 217.705 32.5913Q216.786 31.6172 216.786 30.0654Q216.786 28.3359 217.777 27.2866Q218.768 26.2373 220.422 26.2373Q221.345 26.2373 222.049 26.5791L222.049 27.7275Q221.27 27.1807 220.381 27.1807Q219.308 27.1807 218.621 27.9497Q217.934 28.7188 217.934 29.9697Q217.934 31.2002 218.58 31.9111Q219.226 32.6221 220.313 32.6221Q221.229 32.6221 222.036 32.0137L222.036 33.0801ZM233.79 32.5845Q234.716 33.5654 236.268 33.5654Q237.861 33.5654 238.808 32.5571Q239.754 31.5488 239.754 29.874Q239.754 28.165 238.876 27.2012Q237.998 26.2373 236.432 26.2373Q234.792 26.2373 233.828 27.2285Q232.864 28.2197 232.864 29.9834Q232.864 31.6035 233.79 32.5845ZM247.356 33.4014L246.235 33.4014L246.235 29.4092Q246.235 27.1807 244.608 27.1807Q243.767 27.1807 243.217 27.813Q242.667 28.4453 242.667 29.4092L242.667 33.4014L241.545 33.4014L241.545 26.4014L242.667 26.4014L242.667 27.5635L242.694 27.5635Q243.487 26.2373 244.991 26.2373Q246.139 26.2373 246.748 26.979Q247.356 27.7207 247.356 29.1221L247.356 33.4014ZM232.125 27.5361Q231.832 27.3105 231.278 27.3105Q230.56 27.3105 230.078 27.9873Q229.596 28.6641 229.596 29.833L229.596 33.4014L228.475 33.4014L228.475 26.4014L229.596 26.4014L229.596 27.8438L229.624 27.8438Q229.863 27.1055 230.355 26.6919Q230.847 26.2783 231.456 26.2783Q231.893 26.2783 232.125 26.374L232.125 27.5361ZM155.618 33.4014L156.739 33.4014L156.739 26.4014L155.618 26.4014L155.618 33.4014ZM140.791 27.9155Q141.419 27.1807 142.5 27.1807Q143.586 27.1807 144.171 27.8916Q144.755 28.6025 144.755 29.915Q144.755 31.2139 144.171 31.918Q143.586 32.6221 142.5 32.6221Q141.433 32.6221 140.797 31.9043Q140.162 31.1865 140.162 29.9424Q140.162 28.6504 140.791 27.9155ZM192.245 30.2363L192.245 29.2041Q192.245 28.3564 191.684 27.7686Q191.124 27.1807 190.262 27.1807Q189.237 27.1807 188.649 27.9326Q188.061 28.6846 188.061 30.0107Q188.061 31.2207 188.625 31.9214Q189.189 32.6221 190.139 32.6221Q191.076 32.6221 191.66 31.9453Q192.245 31.2686 192.245 30.2363ZM213.952 27.7207Q214.414 28.2607 214.42 29.2314L210.64 29.2314Q210.77 28.3154 211.324 27.748Q211.877 27.1807 212.67 27.1807Q213.491 27.1807 213.952 27.7207ZM234.641 27.9155Q235.27 27.1807 236.35 27.1807Q237.437 27.1807 238.021 27.8916Q238.606 28.6025 238.606 29.915Q238.606 31.2139 238.021 31.918Q237.437 32.6221 236.35 32.6221Q235.284 32.6221 234.648 31.9043Q234.012 31.1865 234.012 29.9424Q234.012 28.6504 234.641 27.9155ZM176.235 29.8604L174.546 30.0928Q173.767 30.2021 173.371 30.479Q172.974 30.7559 172.974 31.46Q172.974 31.9727 173.34 32.2974Q173.706 32.6221 174.314 32.6221Q175.148 32.6221 175.691 32.0376Q176.235 31.4531 176.235 30.5576L176.235 29.8604ZM165.407 35.2061L166.5 31.8428L165.407 31.8428L164.607 35.2061L165.407 35.2061ZM249.321 33.3262Q249.543 33.5518 249.858 33.5518Q250.179 33.5518 250.405 33.3262Q250.63 33.1006 250.63 32.7861Q250.63 32.4717 250.405 32.2427Q250.179 32.0137 249.858 32.0137Q249.543 32.0137 249.321 32.2427Q249.099 32.4717 249.099 32.7861Q249.099 33.1006 249.321 33.3262Z" />
      </g>
    </g>
    <g id="Vietnam" fill="#FFFFFF" transform="translate(127 48)">
      <path d="M24.128 10.2L24.128 7L26.304 7L26.304 10.2L24.128 10.2ZM2.752 7.64L10.88 27.576L18.976 7.64L21.312 7.64L11.904 30.36L9.856 30.36L0.416 7.64L2.752 7.64ZM57.888 29.688Q57.632 29.784 57.088 30.04Q56.544 30.296 55.776 30.488Q55.008 30.68 54.112 30.68Q53.184 30.68 52.368 30.3265Q51.552 29.973 51.072 29.25Q50.592 28.527 50.592 27.4665L50.592 15.48L48.288 15.48L48.288 13.752L50.592 13.752L50.592 8.12L52.768 8.12L52.768 13.752L56.608 13.752L56.608 15.48L52.768 15.48L52.768 26.8635Q52.832 27.7635 53.424 28.2138Q54.016 28.664 54.784 28.664Q55.68 28.664 56.416 28.36Q57.152 28.056 57.312 27.928L57.888 29.688ZM34.976 29.9945Q36.512 30.68 38.304 30.68Q39.936 30.68 41.36 30.152Q42.784 29.624 43.84 28.664Q44.896 27.704 45.408 26.52L43.52 26.008Q42.944 27.352 41.488 28.184Q40.032 29.016 38.4 29.016Q36.8 29.016 35.44 28.2043Q34.08 27.3925 33.232 26.0078Q32.384 24.623 32.224 22.84L46.496 22.84Q46.528 22.713 46.528 22.4745L46.528 21.982Q46.528 19.6935 45.472 17.7708Q44.416 15.848 42.576 14.672Q40.736 13.496 38.272 13.496Q35.872 13.496 33.984 14.6552Q32.096 15.8145 31.024 17.752Q29.952 19.6895 29.952 22.008Q29.952 23.7935 30.576 25.3558Q31.2 26.918 32.32 28.1135Q33.44 29.309 34.976 29.9945ZM72.448 30.36L74.624 30.36L74.624 20.655Q74.624 19.0325 74.368 17.712Q74.112 16.3915 73.536 15.4528Q72.96 14.514 72 14.005Q71.04 13.496 69.664 13.496Q68.192 13.496 66.816 14.005Q65.44 14.514 64.352 15.421Q63.264 16.328 62.592 17.537L62.592 13.752L60.608 13.752L60.608 30.36L62.784 30.36L62.784 20.21Q63.2 18.845 64.144 17.7815Q65.088 16.718 66.336 16.099Q67.584 15.48 68.864 15.48Q70.72 15.48 71.584 16.8312Q72.448 18.1825 72.448 21.1075L72.448 30.36ZM77.92 25.592Q77.92 24.034 78.816 22.905Q79.712 21.776 81.296 21.156Q82.88 20.536 84.96 20.536Q86.176 20.536 87.488 20.728Q88.8 20.92 89.824 21.304L89.824 19.9Q89.824 17.801 88.576 16.5605Q87.328 15.32 85.12 15.32Q83.776 15.32 82.48 15.816Q81.184 16.312 79.776 17.272L78.944 15.736Q80.576 14.616 82.144 14.056Q83.712 13.496 85.344 13.496Q88.416 13.496 90.208 15.245Q92 16.994 92 20.0785L92 27.7415Q92 28.187 92.192 28.3935Q92.384 28.6 92.8 28.632L92.8 30.36Q92.448 30.392 92.192 30.424Q91.936 30.456 91.808 30.424Q91.008 30.392 90.592 29.912Q90.176 29.432 90.144 28.888L90.112 27.672Q88.992 29.112 87.2 29.896Q85.408 30.68 83.552 30.68Q81.952 30.68 80.656 29.9963Q79.36 29.3125 78.64 28.152Q77.92 26.9915 77.92 25.592ZM119.328 30.36L121.504 30.36L121.504 20.655Q121.504 19.0325 121.232 17.712Q120.96 16.3915 120.368 15.4528Q119.776 14.514 118.8 14.005Q117.824 13.496 116.416 13.496Q114.368 13.496 112.752 14.5778Q111.136 15.6595 109.984 17.7595Q109.696 15.8505 108.416 14.6733Q107.136 13.496 105.056 13.496Q103.04 13.496 101.392 14.546Q99.744 15.596 98.688 17.537L98.688 13.752L96.704 13.752L96.704 30.36L98.88 30.36L98.88 20.21Q99.488 18.083 100.992 16.7815Q102.496 15.48 104.352 15.48Q106.208 15.48 107.104 16.8312Q108 18.1825 108 21.1075L108 30.36L110.176 30.36L110.176 20.249Q110.784 18.151 112.272 16.8155Q113.76 15.48 115.648 15.48Q117.472 15.48 118.4 16.8472Q119.328 18.2145 119.328 21.1075L119.328 30.36ZM24.128 30.36L24.128 13.688L26.304 13.688L26.304 30.36L24.128 30.36ZM44.48 21.272L32.16 21.272Q32.288 19.4985 33.136 18.121Q33.984 16.7435 35.328 15.9677Q36.672 15.192 38.304 15.192Q39.936 15.192 41.296 15.9677Q42.656 16.7435 43.504 18.1053Q44.352 19.467 44.48 21.272ZM89.088 26.8595Q89.44 26.4155 89.632 26.0035Q89.824 25.5915 89.824 25.274L89.824 22.864Q88.736 22.452 87.568 22.23Q86.4 22.008 85.216 22.008Q82.88 22.008 81.44 22.9275Q80 23.847 80 25.4325Q80 26.3525 80.48 27.161Q80.96 27.9695 81.888 28.4928Q82.816 29.016 84.064 29.016Q85.632 29.016 86.992 28.4135Q88.352 27.811 89.088 26.8595Z" />
    </g>
    <g id="ITS" fill="#FFFFFF" transform="translate(251.69666 49.024475)">
      <path d="M46.9117 12.984Q47.5037 13.368 47.7277 13.592L49.6797 10.008Q48.6877 9.336 47.4397 8.76Q46.1917 8.184 44.7677 7.832Q43.3437 7.48 41.7437 7.48Q39.4397 7.48 37.5517 8.29275Q35.6637 9.1055 34.5597 10.6827Q33.4557 12.26 33.4557 14.5865Q33.4557 16.3075 34.1597 17.4545Q34.8637 18.6015 36.3037 19.3505Q37.7437 20.0995 39.8877 20.705Q41.6797 21.2145 42.9917 21.6448Q44.3037 22.075 45.0397 22.6488Q45.7757 23.2225 45.7757 24.242Q45.7757 25.3495 44.8477 25.9508Q43.9197 26.552 42.1277 26.552Q40.8477 26.552 39.5997 26.232Q38.3517 25.912 37.2957 25.448Q36.2397 24.984 35.5037 24.52Q34.7677 24.056 34.4797 23.768L32.5277 27.576Q33.8397 28.504 35.4077 29.16Q36.9757 29.816 38.6717 30.168Q40.3677 30.52 42.0637 30.52Q43.7597 30.52 45.2637 30.1538Q46.7677 29.7875 47.9517 28.9915Q49.1357 28.1955 49.8077 26.906Q50.4797 25.6165 50.4797 23.8015Q50.4797 21.732 49.5997 20.4743Q48.7197 19.2165 47.0717 18.4365Q45.4237 17.6565 43.1837 17.115Q41.4557 16.6695 40.3037 16.2873Q39.1517 15.905 38.5757 15.3637Q37.9997 14.8225 37.9997 13.899Q37.9997 12.6895 38.9117 12.0208Q39.8237 11.352 41.6157 11.352Q42.6397 11.352 43.6317 11.624Q44.6237 11.896 45.4717 12.248Q46.3197 12.6 46.9117 12.984ZM5.23169 30.36L5.23169 7.64L9.64769 7.64L9.64769 30.36L5.23169 30.36ZM31.3757 11.512L24.1117 11.512L24.1117 30.36L19.7277 30.36L19.7277 11.512L12.4637 11.512L12.4637 7.64L31.3757 7.64L31.3757 11.512Z" />
    </g>
    <g id="🚀-Services" fill="#FFFFFF" transform="translate(168.70001 134)">
      <path d="M19.9688 1.5L19.9688 2.625Q19.9688 3.82031 19.7383 4.97266Q19.5078 6.125 19.0586 7.20313Q18.6094 8.28125 17.957 9.26172Q17.3047 10.2422 16.4609 11.0859L14.3516 13.1953L14.3516 16.5625L11.5469 19.375L9.55469 17.3828L7.64063 18.0234Q7.15625 18.4609 6.625 18.7422Q6.09375 19.0234 5.52734 19.1836Q4.96094 19.3438 4.35938 19.4063Q3.75781 19.4688 3.125 19.4688L2 19.4688Q2 18.6094 2.02344 17.8438Q2.04688 17.0781 2.18359 16.3867Q2.32031 15.6953 2.61328 15.0625Q2.90625 14.4297 3.44531 13.8281L4.08594 11.9141L2.09375 9.92188L4.90625 7.11719L8.27344 7.11719L10.3828 5.00781Q11.2266 4.16406 12.207 3.51172Q13.1875 2.85938 14.2656 2.41016Q15.3438 1.96094 16.4961 1.73047Q17.6484 1.5 18.8438 1.5L19.9688 1.5ZM17.8203 7.21875Q18.3281 6.13281 18.5859 4.97656Q18.8438 3.82031 18.8438 2.625Q17.6484 2.625 16.4883 2.87891Q15.3281 3.13281 14.25 3.64844Q16.0391 5.42969 17.8203 7.21875ZM15.6719 10.2891Q16.2344 9.72656 16.707 9.08984Q17.1797 8.45313 17.5625 7.75L13.7188 3.90625Q13.0156 4.28906 12.3789 4.76172Q11.7422 5.23438 11.1797 5.79688L5.36719 11.6094L9.85938 16.1016L15.6719 10.2891ZM58.3984 6.07031Q58.0547 6.07031 57.8125 5.83594Q57.5703 5.60156 57.5703 5.24219Q57.5703 4.88281 57.8125 4.64453Q58.0547 4.40625 58.3984 4.40625Q58.75 4.40625 58.9961 4.64453Q59.2422 4.88281 59.2422 5.24219Q59.2422 5.58594 58.9961 5.82813Q58.75 6.07031 58.3984 6.07031ZM27.2969 15.6484L27.2969 14.1016Q27.5625 14.3359 27.9336 14.5234Q28.3047 14.7109 28.7148 14.8398Q29.125 14.9688 29.5391 15.0391Q29.9531 15.1094 30.3047 15.1094Q31.5156 15.1094 32.1133 14.6602Q32.7109 14.2109 32.7109 13.3672Q32.7109 12.9141 32.5117 12.5781Q32.3125 12.2422 31.9609 11.9648Q31.6094 11.6875 31.1289 11.4336Q30.6484 11.1797 30.0938 10.8984Q29.5078 10.6016 29 10.2969Q28.4922 9.99219 28.1172 9.625Q27.7422 9.25781 27.5273 8.79297Q27.3125 8.32813 27.3125 7.70313Q27.3125 6.9375 27.6484 6.37109Q27.9844 5.80469 28.5313 5.4375Q29.0781 5.07031 29.7773 4.89063Q30.4766 4.71094 31.2031 4.71094Q32.8594 4.71094 33.6172 5.10938L33.6172 6.58594Q32.625 5.89844 31.0703 5.89844Q30.6406 5.89844 30.2109 5.98828Q29.7813 6.07813 29.4453 6.28125Q29.1094 6.48438 28.8984 6.80469Q28.6875 7.125 28.6875 7.58594Q28.6875 8.01563 28.8477 8.32813Q29.0078 8.64063 29.3203 8.89844Q29.6328 9.15625 30.082 9.39844Q30.5313 9.64063 31.1172 9.92969Q31.7188 10.2266 32.2578 10.5547Q32.7969 10.8828 33.2031 11.2813Q33.6094 11.6797 33.8477 12.1641Q34.0859 12.6484 34.0859 13.2734Q34.0859 14.1016 33.7617 14.6758Q33.4375 15.25 32.8867 15.6094Q32.3359 15.9688 31.6172 16.1289Q30.8984 16.2891 30.1016 16.2891Q29.8359 16.2891 29.4453 16.2461Q29.0547 16.2031 28.6484 16.1211Q28.2422 16.0391 27.8789 15.918Q27.5156 15.7969 27.2969 15.6484ZM13.2266 6.55469Q13.5781 6.55469 13.8828 6.6875Q14.1875 6.82031 14.418 7.05078Q14.6484 7.28125 14.7813 7.58594Q14.9141 7.89063 14.9141 8.24219Q14.9141 8.58594 14.7813 8.89453Q14.6484 9.20313 14.418 9.42969Q14.1875 9.65625 13.8789 9.78906Q13.5703 9.92188 13.2266 9.92188Q12.8828 9.92188 12.5742 9.78906Q12.2656 9.65625 12.0391 9.42969Q11.8125 9.20313 11.6797 8.89453Q11.5469 8.58594 11.5469 8.24219Q11.5469 7.89844 11.6797 7.58984Q11.8125 7.28125 12.0391 7.05078Q12.2656 6.82031 12.5742 6.6875Q12.8828 6.55469 13.2266 6.55469ZM13.2266 9.35938Q13.4609 9.35938 13.6641 9.27344Q13.8672 9.1875 14.0195 9.03516Q14.1719 8.88281 14.2617 8.67969Q14.3516 8.47656 14.3516 8.24219Q14.3516 8.00781 14.2617 7.80469Q14.1719 7.60156 14.0195 7.44922Q13.8672 7.29688 13.6641 7.20703Q13.4609 7.11719 13.2266 7.11719Q12.9922 7.11719 12.7891 7.20703Q12.5859 7.29688 12.4336 7.44922Q12.2812 7.60156 12.1953 7.80469Q12.1094 8.00781 12.1094 8.24219Q12.1094 8.47656 12.1953 8.67969Q12.2812 8.88281 12.4336 9.03516Q12.5859 9.1875 12.7891 9.27344Q12.9922 9.35938 13.2266 9.35938ZM36.9297 12.4219L42.5781 12.4219L42.5781 11.75Q42.5781 9.94531 41.7188 8.92969Q40.8594 7.91406 39.2891 7.91406Q37.7188 7.91406 36.6602 9.08984Q35.6016 10.2656 35.6016 12.1328Q35.6016 14.1094 36.5703 15.1992Q37.5391 16.2891 39.2344 16.2891Q40.9688 16.2891 42.0234 15.5234L42.0234 14.3203Q40.8906 15.2109 39.5391 15.2109Q38.3359 15.2109 37.6484 14.4844Q36.9609 13.7578 36.9297 12.4219ZM64.8828 16.2891Q66.1484 16.2891 67.0703 15.7344L67.0703 14.5156Q66.1484 15.2109 65.1016 15.2109Q63.8594 15.2109 63.1211 14.3984Q62.3828 13.5859 62.3828 12.1797Q62.3828 10.75 63.168 9.87109Q63.9531 8.99219 65.1797 8.99219Q66.1953 8.99219 67.0859 9.61719L67.0859 8.30469Q66.2813 7.91406 65.2266 7.91406Q63.3359 7.91406 62.2031 9.11328Q61.0703 10.3125 61.0703 12.2891Q61.0703 14.0625 62.1211 15.1758Q63.1719 16.2891 64.8828 16.2891ZM75.4375 12.4219L69.7891 12.4219Q69.8203 13.7578 70.5078 14.4844Q71.1953 15.2109 72.3984 15.2109Q73.75 15.2109 74.8828 14.3203L74.8828 15.5234Q73.8281 16.2891 72.0938 16.2891Q70.3984 16.2891 69.4297 15.1992Q68.4609 14.1094 68.4609 12.1328Q68.4609 10.2656 69.5195 9.08984Q70.5781 7.91406 72.1484 7.91406Q73.7188 7.91406 74.5781 8.92969Q75.4375 9.94531 75.4375 11.75L75.4375 12.4219ZM76.8906 14.4375L76.8906 15.8125Q77.7969 16.2891 79.0313 16.2891Q79.6563 16.2891 80.2266 16.1484Q80.7969 16.0078 81.2344 15.7188Q81.6719 15.4297 81.9336 14.9922Q82.1953 14.5547 82.1953 13.9609Q82.1953 13.4766 82.0352 13.125Q81.875 12.7734 81.5781 12.5039Q81.2813 12.2344 80.8594 12.0195Q80.4375 11.8047 79.9063 11.6016Q79.5078 11.4453 79.1953 11.3125Q78.8828 11.1797 78.6641 11.0156Q78.4453 10.8516 78.332 10.6406Q78.2188 10.4297 78.2188 10.1172Q78.2188 9.86719 78.332 9.66016Q78.4453 9.45313 78.6523 9.30469Q78.8594 9.15625 79.1484 9.07422Q79.4375 8.99219 79.7969 8.99219Q80.9453 8.99219 81.8281 9.57031L81.8281 8.27344Q81.0078 7.91406 79.9688 7.91406Q79.3828 7.91406 78.832 8.0625Q78.2813 8.21094 77.8516 8.50391Q77.4219 8.79688 77.1641 9.23047Q76.9063 9.66406 76.9063 10.2266Q76.9063 10.6875 77.043 11.0313Q77.1797 11.375 77.4492 11.6445Q77.7188 11.9141 78.1211 12.1289Q78.5234 12.3438 79.0547 12.5547Q79.4375 12.7031 79.7695 12.8398Q80.1016 12.9766 80.3477 13.1484Q80.5938 13.3203 80.7383 13.543Q80.8828 13.7656 80.8828 14.0859Q80.8828 15.2109 79.1953 15.2109Q77.9375 15.2109 76.8906 14.4375ZM48.6875 9.39844Q48.3516 9.14063 47.7188 9.14063Q46.8984 9.14063 46.3477 9.91406Q45.7969 10.6875 45.7969 12.0234L45.7969 16.1016L44.5156 16.1016L44.5156 8.10156L45.7969 8.10156L45.7969 9.75L45.8281 9.75Q46.1016 8.90625 46.6641 8.43359Q47.2266 7.96094 47.9219 7.96094Q48.4219 7.96094 48.6875 8.07031L48.6875 9.39844ZM53.1797 16.1016L56.3672 8.10156L55.0156 8.10156L52.8906 13.9453Q52.7188 14.4297 52.6406 15.0313L52.6094 15.0313Q52.5547 14.5547 52.3281 13.9141L50.2969 8.10156L48.8906 8.10156L51.9219 16.1016L53.1797 16.1016ZM59.0234 16.1016L57.7422 16.1016L57.7422 8.10156L59.0234 8.10156L59.0234 16.1016ZM4.96875 11.2109L7.94531 8.24219L5.36719 8.24219L3.6875 9.92188L4.96875 11.2109ZM40.7305 9.60938Q41.2578 10.2266 41.2656 11.3359L36.9453 11.3359Q37.0938 10.2891 37.7266 9.64063Q38.3594 8.99219 39.2656 8.99219Q40.2031 8.99219 40.7305 9.60938ZM74.125 11.3359Q74.1172 10.2266 73.5898 9.60938Q73.0625 8.99219 72.125 8.99219Q71.2188 8.99219 70.5859 9.64063Q69.9531 10.2891 69.8047 11.3359L74.125 11.3359ZM7.60938 13.5781Q7.60938 13.4609 7.69531 13.375L10.5078 10.5703Q10.5859 10.4922 10.7031 10.4922Q10.8125 10.4922 10.8945 10.5742Q10.9766 10.6563 10.9766 10.7656Q10.9766 10.8828 10.8984 10.9609L8.09375 13.7734Q8.00781 13.8594 7.89063 13.8594Q7.78125 13.8594 7.69531 13.7734Q7.60937 13.6875 7.60938 13.5781ZM13.2266 13.5234L10.2578 16.5L11.5469 17.7813L13.2266 16.1016L13.2266 13.5234ZM3.125 18.3438Q3.67969 18.3438 4.25391 18.2852Q4.82813 18.2266 5.36719 18.0586Q5.90625 17.8906 6.38281 17.5977Q6.85937 17.3047 7.22656 16.8359L6.63281 16.2422Q6.38281 16.5 6.10938 16.6758Q5.83594 16.8516 5.53516 16.9648Q5.23438 17.0781 4.91406 17.1367Q4.59375 17.1953 4.24219 17.2266Q4.27344 16.875 4.33203 16.5547Q4.39063 16.2344 4.50391 15.9336Q4.61719 15.6328 4.79297 15.3594Q4.96875 15.0859 5.22656 14.8359L4.63281 14.2422Q4.16406 14.6094 3.87109 15.0859Q3.57813 15.5625 3.41016 16.1016Q3.24219 16.6406 3.18359 17.2148Q3.125 17.7891 3.125 18.3438Z" />
    </g>
  </g>
</svg>